<svg width="103" height="114" viewBox="0 0 103 114" fill="none" xmlns="http://www.w3.org/2000/svg">
<path d="M62.7024 76.169C62.7636 75.9034 62.8248 75.6377 62.8656 75.3618C62.9271 74.9726 62.9679 74.5804 62.988 74.1868C63.0373 73.0305 62.9345 71.8728 62.682 70.7434C62.682 70.6413 62.682 70.5289 62.6106 70.4267C61.82 67.4274 59.9617 64.8212 57.3858 63.0991C54.8099 61.3771 51.6942 60.6581 48.6257 61.0775H48.4829C45.6916 61.2802 42.8866 61.1739 40.1185 60.7608C31.9581 59.6164 26.5723 54.2828 24.8178 47.7741C22.2677 38.3637 27.1741 29.3824 38.2416 24.7538C44.5965 22.0972 48.9317 16.2118 47.2384 9.50903C46.8369 7.90598 46.1236 6.398 45.1394 5.07145C44.1553 3.7449 42.9196 2.62581 41.5031 1.77827C40.0866 0.930735 38.5171 0.371385 36.8845 0.132249C35.2519 -0.106886 33.5882 -0.0211111 31.9887 0.384664C25.695 1.97862 22.1759 8.0479 22.6655 14.4033C23.5631 26.2353 20.401 33.1731 7.07914 39.3344C6.73048 39.4868 6.39 39.6573 6.05909 39.8452C4.82051 40.557 3.7158 41.4802 2.79493 42.5734C2.57387 42.8316 2.36619 43.101 2.1727 43.3806C1.78501 43.9516 1.44389 44.553 1.15265 45.1789C1.00985 45.4752 0.887442 45.7817 0.765036 46.0984C0.760974 46.1324 0.760974 46.1667 0.765036 46.2006C0.652831 46.5072 0.550826 46.8035 0.459022 47.1202V47.2428C0.367217 47.5596 0.285614 47.8763 0.224411 48.1931C0.224411 48.1931 0.224411 48.1931 0.224411 48.2748C0.163208 48.5882 0.112205 48.9287 0.0714034 49.2966C0.0714034 49.6235 0.0102005 49.9505 0 50.3183V50.4614C0 50.7781 0 51.1051 0 51.4321C0 51.4832 0 51.5445 0 51.5956C0 51.9225 0.0612029 52.2495 0.112205 52.6173C0.107321 52.6615 0.107321 52.706 0.112205 52.7501C0.164384 53.0945 0.235901 53.4356 0.326416 53.7719C0.408019 54.1091 0.510024 54.4463 0.62223 54.7937C0.62223 54.7937 0.62223 54.8754 0.62223 54.9265C0.724234 55.233 0.84664 55.5396 0.979247 55.8359C1.00916 55.8875 1.03312 55.9423 1.05065 55.9994C1.19346 56.2855 1.33626 56.5715 1.48927 56.8474C1.48927 56.8985 1.54027 56.9394 1.56067 56.9803C1.73408 57.2663 1.89729 57.5422 2.0911 57.8181C2.28491 58.094 2.47872 58.3596 2.69293 58.6253C2.89694 58.8807 3.12135 59.126 3.34576 59.361L3.43756 59.4427C3.65955 59.6771 3.89454 59.8989 4.1414 60.1069C4.1636 60.1359 4.19134 60.1602 4.223 60.1784C4.47801 60.4032 4.73303 60.6075 4.99824 60.8017C5.56011 61.2119 6.15752 61.571 6.78332 61.8745C7.08934 62.0278 7.39535 62.1708 7.71157 62.2934H7.76257C9.09469 62.8127 10.5058 63.0995 11.9346 63.1415C12.3018 63.1415 12.6588 63.1415 13.026 63.1415C23.5937 62.7021 30.8667 65.2668 35.2835 71.1113C36.5014 72.8296 37.5211 74.6806 38.3232 76.6288L38.3844 76.7514C40.5163 82.2383 45.2902 86.0903 50.7984 85.9984C51.7236 85.9835 52.6441 85.8635 53.5423 85.6408C55.7339 85.0865 57.7348 83.9485 59.3331 82.3476C60.9314 80.7466 62.0674 78.7423 62.6208 76.5471C62.6616 76.4347 62.6718 76.3018 62.7024 76.169Z" fill="#5C99D2"/>
<path d="M40.3017 37.6864C40.2405 37.9628 40.1792 38.2289 40.1384 38.4951C40.0769 38.8884 40.0361 39.2848 40.016 39.6824C39.958 40.8404 40.0576 42.0009 40.3119 43.1319C40.3119 43.2343 40.3119 43.3469 40.3833 43.4492C41.1759 46.4527 43.0348 49.0622 45.6105 50.787C48.1861 52.5117 51.3011 53.233 54.3695 52.815H54.5225C57.3137 52.609 60.119 52.7119 62.8878 53.1221C71.0489 54.2787 76.4353 59.6218 78.19 66.1421C80.7404 75.5693 75.8334 84.5666 64.7648 89.2034C58.4195 91.8852 54.0839 97.822 55.7773 104.496C56.1812 106.099 56.8958 107.606 57.8803 108.932C58.8649 110.258 60.1 111.376 61.5153 112.223C62.9305 113.07 64.4982 113.629 66.1287 113.868C67.7593 114.107 69.4208 114.021 71.0183 113.616C77.3127 112.009 80.8322 105.939 80.3527 99.5723C79.4448 87.7192 82.6072 80.7691 95.9406 74.5969C96.2772 74.4331 96.6037 74.2693 96.9607 74.0851C98.1973 73.369 99.3016 72.4445 100.225 71.3521C100.439 71.0962 100.654 70.8198 100.847 70.5435C101.234 69.9672 101.575 69.3614 101.868 68.7317C102.01 68.4247 102.143 68.1176 102.255 67.8105C102.259 67.7765 102.259 67.7421 102.255 67.7081C102.368 67.4011 102.47 67.1042 102.561 66.7869C102.561 66.7869 102.561 66.705 102.561 66.6641C102.643 66.3468 102.725 66.0295 102.786 65.7122C102.791 65.6851 102.791 65.6573 102.786 65.6303C102.857 65.3027 102.898 64.9752 102.939 64.6067C102.939 64.2791 102.939 63.9414 103 63.5831V63.4296C103 63.1123 103 62.7949 103 62.4674C103 62.4674 103 62.3548 103 62.2934C103 61.9658 102.949 61.6485 102.898 61.321V61.1777C102.898 60.8399 102.776 60.4919 102.694 60.1541C102.612 59.8163 102.5 59.4785 102.388 59.1305V58.9974C102.276 58.6904 102.153 58.3833 102.021 58.0865C101.991 58.0348 101.967 57.9798 101.949 57.9227C101.817 57.6361 101.664 57.3495 101.511 57.0629V56.8786C101.349 56.5892 101.172 56.309 100.98 56.0393C100.786 55.7629 100.592 55.507 100.378 55.2409V55.1795C100.164 54.9338 99.9498 54.6882 99.7151 54.4527L99.6335 54.3606C99.3989 54.1354 99.1642 53.9102 98.9296 53.7055L98.8378 53.6236C98.5828 53.4087 98.3277 53.204 98.0625 53.0095C97.4959 52.6206 96.8988 52.2782 96.2772 51.9859C95.9712 51.8426 95.6549 51.6993 95.3387 51.5765C94.0059 51.0596 92.5947 50.7757 91.1663 50.7371C90.8092 50.7371 90.442 50.7371 90.0747 50.7371C79.5162 51.1875 72.2323 48.6183 67.8151 42.7634C66.6398 41.0727 65.6545 39.2567 64.877 37.3487L64.8158 37.2156C62.6837 31.7292 57.9196 27.8703 52.4006 28.0033C51.475 28.0135 50.5538 28.1338 49.6564 28.3616C47.4657 28.9189 45.4656 30.0595 43.8675 31.663C42.2693 33.2665 41.1325 35.2733 40.5771 37.4715C40.3527 37.4305 40.3323 37.5636 40.3017 37.6864Z" fill="#FF6D2A"/>
</svg>
