<svg width="320" height="109" viewBox="0 0 320 109" fill="none" xmlns="http://www.w3.org/2000/svg">
<path d="M59.7166 71.7406C59.7748 71.4904 59.8331 71.2402 59.872 70.9803C59.9305 70.6137 59.9695 70.2443 59.9886 69.8736C60.0356 68.7846 59.9376 67.6941 59.6971 66.6304C59.6971 66.5342 59.6971 66.4283 59.6291 66.3321C58.8762 63.5072 57.1064 61.0525 54.6531 59.4306C52.1999 57.8086 49.2325 57.1314 46.3102 57.5265H46.1742C43.5158 57.7174 40.8443 57.6173 38.2081 57.2282C30.4363 56.1503 25.3069 51.1268 23.636 44.9966C21.2073 36.1332 25.8801 27.6741 36.4206 23.3146C42.4729 20.8125 46.6016 15.2693 44.989 8.95618C44.6066 7.44633 43.9272 6.02603 42.9899 4.7766C42.0527 3.52717 40.8758 2.47315 39.5267 1.67489C38.1777 0.876622 36.6829 0.349793 35.1281 0.12456C33.5732 -0.100672 31.9888 -0.0198837 30.4654 0.3623C24.4714 1.86358 21.1199 7.58 21.5862 13.5659C22.4411 24.71 19.4295 31.2444 6.74203 37.0475C6.40998 37.191 6.08572 37.3516 5.77056 37.5287C4.59096 38.199 3.53886 39.0686 2.66184 40.0982C2.45131 40.3414 2.25351 40.5951 2.06924 40.8584C1.70001 41.3962 1.37514 41.9627 1.09777 42.5522C0.96176 42.8313 0.845183 43.12 0.728606 43.4183C0.724737 43.4503 0.724737 43.4826 0.728606 43.5145C0.621744 43.8033 0.524596 44.0823 0.437164 44.3807V44.4962C0.349731 44.7945 0.272013 45.0928 0.213724 45.3911C0.213724 45.3911 0.213724 45.3911 0.213724 45.4681C0.155436 45.7633 0.106862 46.084 0.0680032 46.4305C0.0680032 46.7385 0.00971475 47.0464 0 47.3929V47.5276C0 47.8259 0 48.1339 0 48.4418C0 48.4899 0 48.5477 0 48.5958C0 48.9038 0.0582885 49.2117 0.106862 49.5582C0.10221 49.5997 0.10221 49.6417 0.106862 49.6833C0.156556 50.0076 0.224667 50.3289 0.310872 50.6456C0.38859 50.9632 0.485737 51.2808 0.5926 51.608C0.5926 51.608 0.5926 51.685 0.5926 51.7331C0.689747 52.0218 0.806324 52.3105 0.932616 52.5896C0.961105 52.6382 0.983919 52.6899 1.00062 52.7436C1.13663 53.013 1.27263 53.2825 1.41835 53.5423C1.41835 53.5905 1.46693 53.629 1.48636 53.6674C1.65151 53.9369 1.80694 54.1967 1.99152 54.4566C2.1761 54.7164 2.36068 54.9666 2.56469 55.2169C2.75899 55.4574 2.97271 55.6884 3.18644 55.9097L3.27387 55.9867C3.48529 56.2075 3.70908 56.4164 3.94419 56.6123C3.96533 56.6396 3.99175 56.6625 4.0219 56.6796C4.26477 56.8914 4.50764 57.0838 4.76023 57.2667C5.29534 57.6531 5.86431 57.9913 6.46031 58.2772C6.75175 58.4215 7.04319 58.5562 7.34435 58.6717H7.39292C8.6616 59.1608 10.0055 59.4309 11.3663 59.4705C11.716 59.4705 12.056 59.4705 12.4057 59.4705C22.4702 59.0567 29.3968 61.4722 33.6033 66.9769C34.7632 68.5953 35.7344 70.3387 36.4983 72.1736L36.5566 72.2891C38.587 77.457 43.1335 81.0851 48.3794 80.9985C49.2606 80.9844 50.1373 80.8714 50.9927 80.6617C53.0799 80.1396 54.9856 79.0678 56.5077 77.5599C58.0299 76.052 59.1118 74.1642 59.6388 72.0966C59.6777 71.9908 59.6874 71.8657 59.7166 71.7406Z" fill="#2F3033"/>
<path d="M38.2873 36.1233C38.229 36.3836 38.1707 36.6342 38.1319 36.8849C38.0733 37.2554 38.0344 37.6287 38.0153 38.0032C37.96 39.0939 38.0548 40.1869 38.297 41.2521C38.297 41.3485 38.297 41.4546 38.365 41.551C39.1199 44.3799 40.8903 46.8377 43.3433 48.4622C45.7963 50.0866 48.7629 50.7659 51.6853 50.3723H51.831C54.4893 50.1782 57.161 50.2752 59.7979 50.6615C67.5704 51.7509 72.7003 56.7834 74.3714 62.9245C76.8003 71.8036 72.1271 80.2778 61.5856 84.6451C55.5424 87.1709 51.4132 92.7625 53.026 99.0483C53.4107 100.558 54.0912 101.978 55.0289 103.227C55.9665 104.475 57.1429 105.529 58.4907 106.326C59.8386 107.124 61.3316 107.65 62.8845 107.875C64.4374 108.101 66.0198 108.02 67.5413 107.638C73.5359 106.125 76.8878 100.408 76.4311 94.4111C75.5664 83.2471 78.5783 76.7011 91.2767 70.8877C91.5974 70.7335 91.9083 70.5792 92.2483 70.4057C93.426 69.7313 94.4777 68.8605 95.3573 67.8316C95.5614 67.5906 95.7654 67.3303 95.95 67.07C96.3182 66.5272 96.6431 65.9567 96.9216 65.3636C97.0576 65.0744 97.1839 64.7852 97.2908 64.4959C97.2946 64.4639 97.2946 64.4316 97.2908 64.3995C97.3976 64.1103 97.4948 63.8307 97.5822 63.5319C97.5822 63.5319 97.5822 63.4547 97.5822 63.4162C97.66 63.1173 97.7377 62.8184 97.796 62.5196C97.8007 62.4941 97.8007 62.468 97.796 62.4425C97.864 62.134 97.9028 61.8255 97.9417 61.4784C97.9417 61.1699 97.9417 60.8517 98 60.5143V60.3697C98 60.0708 98 59.772 98 59.4635C98 59.4635 98 59.3574 98 59.2996C98 58.9911 97.9514 58.6922 97.9028 58.3837V58.2487C97.9028 57.9306 97.7863 57.6028 97.7085 57.2847C97.6308 56.9665 97.5239 56.6484 97.4171 56.3206V56.1953C97.3102 55.906 97.1936 55.6168 97.0673 55.3372C97.0388 55.2886 97.016 55.2368 96.9993 55.183C96.873 54.9131 96.7272 54.6431 96.5815 54.3732V54.1996C96.428 53.927 96.2593 53.6631 96.0763 53.4091C95.8917 53.1488 95.7071 52.9078 95.5031 52.6571V52.5993C95.299 52.3679 95.095 52.1365 94.8715 51.9148L94.7938 51.828C94.5704 51.6159 94.3469 51.4038 94.1234 51.211L94.036 51.1339C93.7931 50.9314 93.5502 50.7386 93.2976 50.5554C92.758 50.1891 92.1894 49.8667 91.5974 49.5914C91.3059 49.4564 91.0047 49.3214 90.7035 49.2057C89.4342 48.7189 88.0901 48.4515 86.7298 48.4152C86.3897 48.4152 86.04 48.4152 85.6902 48.4152C75.6345 48.8394 68.6974 46.4196 64.4906 40.9051C63.3713 39.3126 62.4329 37.6022 61.6924 35.8051L61.6341 35.6798C59.6035 30.5124 55.0663 26.8778 49.8101 27.0031C48.9286 27.0127 48.0513 27.126 47.1966 27.3406C45.1102 27.8655 43.2053 28.9398 41.6833 30.4501C40.1613 31.9603 39.0786 33.8505 38.5496 35.9208C38.3359 35.8823 38.3165 36.0076 38.2873 36.1233Z" fill="#2F3033"/>
<path d="M133.83 72.2511C137.235 72.2511 138.473 71.1677 138.473 69.1558C138.473 66.6796 136.152 65.6737 132.283 64.513C125.241 62.4237 117.58 59.5606 117.58 50.5844C117.58 44.007 121.836 39.751 131.509 39.751C135.684 39.7473 139.844 40.2672 143.89 41.2986C144.069 41.3616 144.231 41.4638 144.365 41.5977C144.499 41.7316 144.601 41.8938 144.664 42.0724C144.664 42.0724 145.438 47.9534 145.438 48.2629C145.443 48.366 145.427 48.4691 145.39 48.5655C145.353 48.6619 145.296 48.7495 145.223 48.8225C145.15 48.8955 145.063 48.9523 144.966 48.9892C144.87 49.0261 144.767 49.0423 144.664 49.0367C140.336 48.1134 135.932 47.5953 131.509 47.4891C128.414 47.4891 126.866 48.5724 126.866 50.5844C126.866 53.0606 129.188 54.0665 133.057 55.2272C140.098 57.3165 147.759 60.0635 147.759 69.1558C147.759 75.3463 142.729 79.9892 133.83 79.9892C128.836 80.0186 123.87 79.2345 119.128 77.6678C118.949 77.6048 118.787 77.5026 118.653 77.3687C118.519 77.2348 118.417 77.0726 118.354 76.8939C118.354 76.8939 117.58 71.013 117.58 70.7035C117.575 70.6004 117.591 70.4973 117.628 70.4009C117.665 70.3044 117.722 70.2169 117.795 70.1439C117.868 70.0709 117.955 70.0141 118.052 69.9772C118.148 69.9403 118.251 69.9241 118.354 69.9296C118.741 69.9296 126.866 72.2511 133.83 72.2511Z" fill="#2F3033"/>
<path d="M163.778 63.7399C164.397 68.6923 166.486 72.2518 174.224 72.2518C178.645 72.1137 183.046 71.5959 187.379 70.7042C187.482 70.6986 187.585 70.7148 187.681 70.7517C187.778 70.7886 187.865 70.8454 187.938 70.9184C188.011 70.9914 188.068 71.079 188.105 71.1754C188.142 71.2718 188.158 71.3749 188.153 71.478C188.153 71.7101 187.379 77.6685 187.379 77.6685C187.353 77.8646 187.263 78.0467 187.123 78.1866C186.983 78.3265 186.801 78.4163 186.605 78.4423C182.559 79.4737 178.399 79.9936 174.224 79.9899C157.587 79.9899 154.105 70.9363 154.105 59.8708C154.105 48.8053 157.664 39.8291 173.45 39.8291C184.438 39.8291 190.551 45.9422 190.551 59.8708V62.9661C190.532 63.1781 190.434 63.3753 190.276 63.5185C190.119 63.6618 189.913 63.7408 189.7 63.7399H163.778ZM163.778 56.0018H181.111C180.801 51.6684 178.867 47.4898 173.45 47.4898C166.099 47.4898 164.319 51.1267 163.778 56.0018Z" fill="#2F3033"/>
<path d="M199.295 22.6503C199.29 22.5472 199.306 22.4441 199.343 22.3477C199.38 22.2512 199.436 22.1637 199.509 22.0907C199.582 22.0177 199.67 21.9609 199.766 21.924C199.863 21.8871 199.966 21.8709 200.069 21.8765L207.807 21.1026C207.91 21.0971 208.013 21.1132 208.11 21.1502C208.206 21.1871 208.294 21.2439 208.367 21.3169C208.44 21.3899 208.497 21.4774 208.533 21.5738C208.57 21.6703 208.587 21.7734 208.581 21.8765V73.0254C208.611 74.8563 208.871 76.6761 209.355 78.4421C209.36 78.5451 209.344 78.6483 209.307 78.7447C209.27 78.8411 209.214 78.9286 209.141 79.0016C209.068 79.0746 208.98 79.1314 208.884 79.1684C208.787 79.2053 208.684 79.2215 208.581 79.2159H200.843C200.533 79.2159 200.224 78.9063 200.069 78.4421C199.55 76.6836 199.289 74.8589 199.295 73.0254V22.6503Z" fill="#2F3033"/>
<path d="M219.955 22.6503C219.95 22.5472 219.966 22.4441 220.003 22.3477C220.04 22.2512 220.097 22.1637 220.17 22.0907C220.243 22.0177 220.33 21.9609 220.427 21.924C220.523 21.8871 220.626 21.8709 220.729 21.8765L228.467 21.1026C228.57 21.0971 228.674 21.1132 228.77 21.1502C228.866 21.1871 228.954 21.2439 229.027 21.3169C229.1 21.3899 229.157 21.4774 229.194 21.5738C229.231 21.6703 229.247 21.7734 229.241 21.8765V73.0254C229.271 74.8563 229.531 76.6761 230.015 78.4421C230.021 78.5451 230.004 78.6483 229.967 78.7447C229.931 78.8411 229.874 78.9286 229.801 79.0016C229.728 79.0746 229.64 79.1314 229.544 79.1684C229.447 79.2053 229.344 79.2215 229.241 79.2159H221.503C221.194 79.2159 220.884 78.9063 220.729 78.4421C220.21 76.6836 219.949 74.8589 219.955 73.0254V22.6503Z" fill="#2F3033"/>
<path d="M248.122 63.7399C248.741 68.6923 250.83 72.2518 258.569 72.2518C262.99 72.1137 267.391 71.5959 271.723 70.7042C271.826 70.6986 271.93 70.7148 272.026 70.7517C272.122 70.7886 272.21 70.8454 272.283 70.9184C272.356 70.9914 272.413 71.079 272.45 71.1754C272.487 71.2718 272.503 71.3749 272.497 71.478C272.497 71.7101 271.723 77.6685 271.723 77.6685C271.697 77.8646 271.608 78.0467 271.468 78.1866C271.328 78.3265 271.146 78.4163 270.95 78.4423C266.904 79.4737 262.744 79.9936 258.569 79.9899C241.932 79.9899 238.45 70.9363 238.45 59.8708C238.45 48.8053 242.009 39.8291 257.795 39.8291C268.783 39.8291 274.896 45.9422 274.896 59.8708V62.9661C274.877 63.1781 274.779 63.3753 274.621 63.5185C274.463 63.6618 274.258 63.7408 274.045 63.7399H248.122ZM248.122 56.0018H265.456C265.146 51.6684 263.211 47.4898 257.795 47.4898C250.444 47.4898 248.664 51.1267 248.122 56.0018Z" fill="#2F3033"/>
<path d="M300.655 39.751C312.262 39.751 320 45.9415 320 59.8701C320 73.7987 312.262 79.9892 300.655 79.9892C289.048 79.9892 281.31 73.7987 281.31 59.8701C281.31 45.9415 289.048 39.751 300.655 39.751ZM300.655 72.251C308.393 72.251 310.714 67.6082 310.714 59.8701C310.714 52.132 308.393 47.4891 300.655 47.4891C292.917 47.4891 290.595 52.132 290.595 59.8701C290.595 67.6082 292.917 72.251 300.655 72.251Z" fill="#2F3033"/>
<path d="M211.938 98.045L213.558 103.445C213.594 103.553 213.648 103.625 213.738 103.625H215.898C215.988 103.625 216.042 103.553 216.078 103.445C216.078 103.445 219.138 94.877 219.138 94.805C219.138 94.697 219.066 94.625 218.958 94.625H217.068C216.996 94.625 216.924 94.697 216.888 94.805L215.016 100.565L214.818 101.825L214.62 100.565L212.838 94.805C212.802 94.715 212.748 94.625 212.658 94.625H211.956L210.606 94.805C210.534 94.823 210.462 94.895 210.426 94.985L208.716 100.565L208.518 101.825L208.32 100.565L206.448 94.805C206.412 94.697 206.34 94.625 206.268 94.625C206.178 94.625 204.468 94.805 204.468 94.805C204.36 94.823 204.288 94.859 204.288 94.985C204.288 95.057 207.258 103.445 207.258 103.445C207.294 103.553 207.348 103.625 207.438 103.625H209.598C209.688 103.625 209.742 103.553 209.778 103.445L211.398 98.045L211.668 96.605L211.938 98.045ZM224.708 96.245C225.968 96.245 226.418 97.217 226.49 98.225H222.458C222.584 97.091 222.998 96.245 224.708 96.245ZM228.488 100.025C228.596 100.025 228.686 99.935 228.686 99.845V99.125C228.686 95.885 227.264 94.463 224.708 94.463C221.036 94.463 220.208 96.551 220.208 99.125C220.208 101.699 221.018 103.805 224.888 103.805C226.508 103.805 227.768 103.445 227.768 103.445C227.876 103.427 227.93 103.355 227.948 103.265C227.948 103.265 228.128 101.879 228.128 101.825C228.128 101.717 228.056 101.645 227.948 101.645C227.858 101.645 226.328 102.005 224.888 102.005C223.088 102.005 222.602 101.177 222.458 100.025H228.488ZM232.712 103.445C232.73 103.319 232.838 102.851 232.838 102.851C232.838 102.851 233.882 103.805 235.232 103.805C238.85 103.805 239.372 101.699 239.372 99.125C239.372 96.551 238.85 94.445 235.232 94.445C234.134 94.445 233.324 94.967 232.892 95.345V90.305C232.892 90.197 232.802 90.125 232.712 90.125C232.604 90.125 230.912 90.305 230.912 90.305C230.804 90.323 230.732 90.377 230.732 90.485V102.005C230.732 102.905 230.552 103.337 230.552 103.445C230.552 103.553 230.624 103.625 230.732 103.625H232.532C232.604 103.625 232.676 103.553 232.712 103.445ZM232.892 99.125C232.892 97.505 233.396 96.245 235.232 96.245C236.888 96.245 237.212 97.505 237.212 99.125C237.212 100.745 236.888 102.005 235.232 102.005C233.396 102.005 232.928 100.871 232.892 99.125ZM253.621 97.505C253.513 98.153 253.351 98.927 253.063 99.647L250.831 97.199C252.487 96.587 253.981 95.921 253.981 94.085C253.981 92.285 252.937 90.845 250.201 90.845C247.465 90.845 246.421 92.285 246.421 94.085C246.421 94.823 246.781 95.597 247.663 96.623C246.421 97.145 245.521 98.225 245.521 100.025C245.521 102.131 246.601 103.805 250.201 103.805C251.389 103.805 252.109 103.463 253.045 102.743L253.117 102.689C253.531 103.139 253.801 103.445 253.801 103.445C253.873 103.535 253.999 103.625 254.089 103.625H256.321C256.429 103.625 256.501 103.553 256.501 103.445C256.501 103.427 255.601 102.419 254.431 101.141C255.187 99.989 255.601 98.549 255.673 97.505C255.673 97.379 255.583 97.325 255.493 97.325H253.801C253.711 97.325 253.639 97.397 253.621 97.505ZM248.941 98.045C249.859 99.053 250.993 100.313 251.929 101.375C251.479 101.771 250.903 102.005 250.201 102.005C248.041 102.005 247.681 101.087 247.681 100.025C247.681 99.107 248.167 98.531 248.941 98.045ZM249.553 95.831C249.121 95.399 248.581 94.805 248.581 94.085C248.581 93.221 248.887 92.645 250.201 92.645C251.533 92.645 251.821 93.365 251.821 94.085C251.821 94.985 250.723 95.327 249.553 95.831ZM262.848 103.445C262.848 103.553 262.92 103.625 263.028 103.625H264.828C264.936 103.625 265.008 103.553 265.008 103.445V98.405C265.008 96.965 265.728 96.245 267.348 96.245C268.248 96.245 268.788 96.605 268.788 98.405V103.445C268.788 103.553 268.86 103.625 268.968 103.625H270.768C270.876 103.625 270.948 103.553 270.948 103.445V98.405C270.948 96.965 271.704 96.245 273.288 96.245C274.188 96.245 274.728 96.605 274.728 98.405V103.445C274.728 103.553 274.8 103.625 274.908 103.625H276.708C276.816 103.625 276.888 103.553 276.888 103.445V98.405C276.888 95.705 276.168 94.445 273.288 94.445C271.668 94.445 270.804 95.489 270.516 95.885C270.048 94.913 269.094 94.445 267.348 94.445C265.728 94.445 264.936 95.471 264.936 95.471L264.828 94.805C264.81 94.697 264.72 94.625 264.648 94.625H262.848C262.74 94.625 262.668 94.697 262.668 94.805C262.668 94.877 262.848 95.345 262.848 96.065V103.445ZM281.026 99.125C281.026 97.325 281.566 96.245 283.366 96.245C285.166 96.245 285.706 97.325 285.706 99.125C285.706 100.925 285.166 102.005 283.366 102.005C281.566 102.005 281.026 100.925 281.026 99.125ZM278.866 99.125C278.866 102.365 280.666 103.805 283.366 103.805C286.066 103.805 287.866 102.365 287.866 99.125C287.866 95.885 286.066 94.445 283.366 94.445C280.666 94.445 278.866 95.885 278.866 99.125ZM291.951 103.445C291.969 103.319 292.077 102.851 292.077 102.851C292.077 102.851 293.121 103.805 294.471 103.805C298.089 103.805 298.611 101.699 298.611 99.125C298.611 96.551 298.089 94.445 294.471 94.445C293.373 94.445 292.563 94.967 292.131 95.345V90.305C292.131 90.197 292.041 90.125 291.951 90.125C291.843 90.125 290.151 90.305 290.151 90.305C290.043 90.323 289.971 90.377 289.971 90.485V102.005C289.971 102.905 289.791 103.337 289.791 103.445C289.791 103.553 289.863 103.625 289.971 103.625H291.771C291.843 103.625 291.915 103.553 291.951 103.445ZM292.131 99.125C292.131 97.505 292.635 96.245 294.471 96.245C296.127 96.245 296.451 97.505 296.451 99.125C296.451 100.745 296.127 102.005 294.471 102.005C292.635 102.005 292.167 100.871 292.131 99.125ZM300.745 102.185C300.745 102.905 300.925 103.445 300.925 103.445C300.961 103.553 301.033 103.625 301.105 103.625H302.905C303.013 103.625 303.085 103.553 303.085 103.445C303.085 103.373 302.905 102.905 302.905 102.185V94.805C302.905 94.697 302.833 94.625 302.725 94.625L300.925 94.805C300.817 94.805 300.745 94.877 300.745 94.985V102.185ZM300.565 92.105C300.565 92.807 301.123 93.365 301.825 93.365C302.527 93.365 303.085 92.807 303.085 92.105C303.085 91.403 302.527 90.845 301.825 90.845C301.123 90.845 300.565 91.403 300.565 92.105ZM305.544 102.185C305.544 102.905 305.724 103.445 305.724 103.445C305.76 103.553 305.832 103.625 305.904 103.625H307.704C307.812 103.625 307.884 103.553 307.884 103.445C307.884 103.373 307.704 102.905 307.704 102.185V90.287C307.704 90.179 307.632 90.107 307.524 90.107L305.724 90.287C305.616 90.287 305.544 90.359 305.544 90.467V102.185ZM314.339 96.245C315.599 96.245 316.049 97.217 316.121 98.225H312.089C312.215 97.091 312.629 96.245 314.339 96.245ZM318.119 100.025C318.227 100.025 318.317 99.935 318.317 99.845V99.125C318.317 95.885 316.895 94.463 314.339 94.463C310.667 94.463 309.839 96.551 309.839 99.125C309.839 101.699 310.649 103.805 314.519 103.805C316.139 103.805 317.399 103.445 317.399 103.445C317.507 103.427 317.561 103.355 317.579 103.265C317.579 103.265 317.759 101.879 317.759 101.825C317.759 101.717 317.687 101.645 317.579 101.645C317.489 101.645 315.959 102.005 314.519 102.005C312.719 102.005 312.233 101.177 312.089 100.025H318.119Z" fill="#2F3033"/>
</svg>
