<?xml version="1.0" encoding="UTF-8" standalone="no"?>
<!-- Created with Inkscape (http://www.inkscape.org/) -->

<svg
   xmlns:dc="http://purl.org/dc/elements/1.1/"
   xmlns:cc="http://creativecommons.org/ns#"
   xmlns:rdf="http://www.w3.org/1999/02/22-rdf-syntax-ns#"
   xmlns:svg="http://www.w3.org/2000/svg"
   xmlns="http://www.w3.org/2000/svg"
   xmlns:xlink="http://www.w3.org/1999/xlink"
   xmlns:sodipodi="http://sodipodi.sourceforge.net/DTD/sodipodi-0.dtd"
   xmlns:inkscape="http://www.inkscape.org/namespaces/inkscape"
   id="svg2"
   version="1.1"
   inkscape:version="0.48.2 r9819"
   width="1052.3622"
   height="744.09448"
   xml:space="preserve"
   sodipodi:docname="selleo_web_and_mobile_horizontal1.svg"><metadata
     id="metadata8"><rdf:RDF><cc:Work
         rdf:about=""><dc:format>image/svg+xml</dc:format><dc:type
           rdf:resource="http://purl.org/dc/dcmitype/StillImage" /><dc:title></dc:title></cc:Work></rdf:RDF></metadata><defs
     id="defs6"><radialGradient
       fx="0"
       fy="0"
       cx="0"
       cy="0"
       r="1"
       gradientUnits="userSpaceOnUse"
       gradientTransform="matrix(66.45665,0,0,-66.45665,184.19385,280.23779)"
       spreadMethod="pad"
       id="radialGradient24"><stop
         style="stop-opacity:1;stop-color:#00d0fe"
         offset="0"
         id="stop26" /><stop
         style="stop-opacity:1;stop-color:#0093e9"
         offset="0.690903"
         id="stop28" /><stop
         style="stop-opacity:1;stop-color:#0077b2"
         offset="1"
         id="stop30" /></radialGradient><radialGradient
       fx="0"
       fy="0"
       cx="0"
       cy="0"
       r="1"
       gradientUnits="userSpaceOnUse"
       gradientTransform="matrix(69.489212,0,0,-69.489212,211.99121,258.47363)"
       spreadMethod="pad"
       id="radialGradient46"><stop
         style="stop-opacity:1;stop-color:#f79606"
         offset="0"
         id="stop48" /><stop
         style="stop-opacity:1;stop-color:#f96603"
         offset="1"
         id="stop50" /></radialGradient><clipPath
       clipPathUnits="userSpaceOnUse"
       id="clipPath58"><path
         d="M 0,480 640,480 640,0 0,0 0,480 z"
         id="path60"
         inkscape:connector-curvature="0" /></clipPath><radialGradient
       inkscape:collect="always"
       xlink:href="#radialGradient24"
       id="radialGradient3087"
       gradientUnits="userSpaceOnUse"
       gradientTransform="matrix(66.45665,0,0,-66.45665,184.19385,280.23779)"
       spreadMethod="pad"
       cx="0"
       cy="0"
       fx="0"
       fy="0"
       r="1" /><radialGradient
       inkscape:collect="always"
       xlink:href="#radialGradient46"
       id="radialGradient3089"
       gradientUnits="userSpaceOnUse"
       gradientTransform="matrix(69.489212,0,0,-69.489212,211.99121,258.47363)"
       spreadMethod="pad"
       cx="0"
       cy="0"
       fx="0"
       fy="0"
       r="1" /><radialGradient
       inkscape:collect="always"
       xlink:href="#radialGradient46"
       id="radialGradient3129"
       gradientUnits="userSpaceOnUse"
       gradientTransform="matrix(69.489212,0,0,-69.489212,211.99121,258.47363)"
       spreadMethod="pad"
       cx="0"
       cy="0"
       fx="0"
       fy="0"
       r="1" /><radialGradient
       inkscape:collect="always"
       xlink:href="#radialGradient46"
       id="radialGradient3135"
       gradientUnits="userSpaceOnUse"
       gradientTransform="matrix(69.489212,0,0,-69.489212,211.99121,258.47363)"
       spreadMethod="pad"
       cx="0"
       cy="0"
       fx="0"
       fy="0"
       r="1" /><radialGradient
       inkscape:collect="always"
       xlink:href="#radialGradient24"
       id="radialGradient3140"
       gradientUnits="userSpaceOnUse"
       gradientTransform="matrix(66.45665,0,0,-66.45665,184.19385,280.23779)"
       spreadMethod="pad"
       cx="0"
       cy="0"
       fx="0"
       fy="0"
       r="1" /><radialGradient
       inkscape:collect="always"
       xlink:href="#radialGradient46"
       id="radialGradient3935"
       gradientUnits="userSpaceOnUse"
       gradientTransform="matrix(69.489212,0,0,-69.489212,211.99121,258.47363)"
       spreadMethod="pad"
       cx="0"
       cy="0"
       fx="0"
       fy="0"
       r="1" /><radialGradient
       inkscape:collect="always"
       xlink:href="#radialGradient24"
       id="radialGradient3937"
       gradientUnits="userSpaceOnUse"
       gradientTransform="matrix(66.45665,0,0,-66.45665,184.19385,280.23779)"
       spreadMethod="pad"
       cx="0"
       cy="0"
       fx="0"
       fy="0"
       r="1" /></defs><sodipodi:namedview
     pagecolor="#ffffff"
     bordercolor="#666666"
     borderopacity="1"
     objecttolerance="10"
     gridtolerance="10"
     guidetolerance="10"
     inkscape:pageopacity="0"
     inkscape:pageshadow="2"
     inkscape:window-width="1920"
     inkscape:window-height="988"
     id="namedview4"
     showgrid="false"
     units="mm"
     inkscape:zoom="0.84074785"
     inkscape:cx="505.5913"
     inkscape:cy="356.79397"
     inkscape:window-x="1680"
     inkscape:window-y="22"
     inkscape:window-maximized="1"
     inkscape:current-layer="g10" /><g
     id="g10"
     inkscape:groupmode="layer"
     inkscape:label="selleo"
     transform="matrix(1.25,0,0,-1.25,0,744.09454)"><g
       id="g14"
       transform="matrix(1.300881,0,0,1.300881,2.562206,-21.075858)"><g
         id="g20"><g
           id="g22"><path
             inkscape:connector-curvature="0"
             id="path32"
             style="fill:url(#radialGradient3937);stroke:none"
             d="m 187.641,289.976 c -6.173,-1.565 -9.62,-7.496 -9.144,-13.716 l 0,0 c 0.884,-11.585 -2.212,-18.374 -15.281,-24.406 l 0,0 0.003,0 c -0.326,-0.151 -0.643,-0.314 -0.951,-0.493 l 0,0 c -0.005,-0.003 -0.011,-0.006 -0.015,-0.012 l 0,0 c -1.229,-0.708 -2.31,-1.616 -3.205,-2.669 l 0,0 c -0.011,-0.014 -0.021,-0.027 -0.033,-0.04 l 0,0 c -0.215,-0.253 -0.422,-0.518 -0.615,-0.792 l 0,0 c -0.006,-0.012 -0.017,-0.022 -0.024,-0.035 l 0,0 c -0.395,-0.557 -0.744,-1.143 -1.041,-1.76 l 0,0 c -0.002,-0.007 -0.006,-0.013 -0.01,-0.018 l 0,0 c -0.141,-0.294 -0.269,-0.593 -0.386,-0.898 l 0,0 c -0.014,-0.034 -0.026,-0.068 -0.039,-0.103 l 0,0 c -0.113,-0.293 -0.211,-0.592 -0.299,-0.896 l 0,0 c -0.014,-0.043 -0.024,-0.081 -0.034,-0.123 l 0,0 c -0.086,-0.307 -0.164,-0.615 -0.225,-0.93 l 0,0 c -0.006,-0.025 -0.01,-0.051 -0.014,-0.074 l 0,0 c -0.06,-0.32 -0.111,-0.638 -0.147,-0.966 l 0,0 c -0.001,-0.011 -0.004,-0.028 -0.005,-0.04 l 0,0 c -0.034,-0.321 -0.051,-0.64 -0.061,-0.967 l 0,0 c 0,-0.049 -0.003,-0.095 -0.003,-0.146 l 0,0 c -0.005,-0.311 0.003,-0.627 0.024,-0.941 l 0,0 c 0.001,-0.057 0.006,-0.114 0.011,-0.168 l 0,0 c 0.023,-0.322 0.06,-0.639 0.11,-0.953 l 0,0 c 0.005,-0.047 0.016,-0.093 0.023,-0.137 l 0,0 c 0.055,-0.334 0.12,-0.67 0.208,-1.004 l 0,0 c 0.084,-0.335 0.185,-0.66 0.294,-0.983 l 0,0 c 0.015,-0.042 0.029,-0.085 0.044,-0.128 l 0,0 c 0.108,-0.303 0.228,-0.602 0.358,-0.891 l 0,0 c 0.023,-0.053 0.046,-0.103 0.07,-0.158 l 0,0 c 0.133,-0.282 0.275,-0.564 0.427,-0.838 l 0,0 c 0.022,-0.043 0.049,-0.084 0.073,-0.126 l 0,0 c 0.162,-0.279 0.331,-0.553 0.514,-0.819 l 0,0 c 0.008,-0.012 0.015,-0.023 0.025,-0.033 l 0,0 c 0.184,-0.272 0.381,-0.529 0.588,-0.782 l 0,0 c 0.016,-0.019 0.029,-0.037 0.045,-0.059 l 0,0 c 0.207,-0.245 0.421,-0.483 0.643,-0.712 l 0,0 c 0.029,-0.029 0.058,-0.061 0.087,-0.089 l 0,0 c 0.223,-0.227 0.451,-0.443 0.691,-0.649 l 0,0 c 0.028,-0.021 0.055,-0.044 0.082,-0.07 l 0,0 c 0.249,-0.211 0.504,-0.414 0.766,-0.604 l 0,0 c 0.007,-0.005 0.014,-0.01 0.021,-0.015 l 0,0 c 0.552,-0.398 1.139,-0.744 1.751,-1.049 l 0,0 c 0.011,-0.008 0.025,-0.013 0.039,-0.021 l 0,0 c 0.3,-0.148 0.607,-0.283 0.918,-0.403 l 0,0 c 0.015,-0.01 0.032,-0.013 0.048,-0.017 l 0,0 c 1.29,-0.502 2.67,-0.788 4.087,-0.827 l 0,0 0.021,0 c 0.356,-0.01 0.712,-0.003 1.07,0.018 l 0,0 -0.001,-0.002 c 10.358,0.436 17.493,-2.072 21.818,-7.793 l 0,0 c 1.088,-1.546 2.06,-3.301 2.888,-5.291 l 0,0 c 0.018,-0.042 0.039,-0.082 0.057,-0.126 l 0,0 c 2.094,-5.364 6.764,-9.138 12.173,-9.044 l 0,0 c 0.876,0.015 1.773,0.12 2.685,0.35 l 0,0 c 4.528,1.148 7.828,4.67 8.904,8.898 l 0,0 c 0.031,0.124 0.049,0.252 0.077,0.377 l 0,0 c 0.059,0.264 0.119,0.522 0.161,0.789 l 0,0 c 0.058,0.382 0.097,0.766 0.119,1.155 l 0,0 c 0,0.014 0.004,0.029 0.005,0.042 l 0,0 c 0.059,1.104 -0.044,2.234 -0.299,3.363 l 0,0 c -0.024,0.105 -0.036,0.21 -0.064,0.316 l 0,0 0,0.003 c -1.561,6.176 -7.52,9.881 -13.712,9.147 l 0,0 c -0.051,-0.006 -0.098,-0.006 -0.148,-0.012 l 0,0 c -3.048,-0.223 -5.735,-0.047 -8.202,0.306 l 0,0 c -7.965,1.128 -13.284,6.341 -15.011,12.717 l 0,0 c -2.496,9.208 2.31,18.013 13.161,22.527 l 0,0 c 6.234,2.596 10.481,8.362 8.819,14.917 l 0,0 c -1.409,5.57 -6.415,9.282 -11.911,9.283 l 0,0 c -1,0 -2.015,-0.123 -3.028,-0.38" /></g></g></g><g
       id="g42"
       transform="matrix(1.300881,0,0,1.300881,2.562206,-21.075858)"><g
         id="g44"><path
           d="m 207.608,262.724 c -0.876,-0.012 -1.773,-0.118 -2.686,-0.349 l 0,0 c -4.527,-1.146 -7.826,-4.668 -8.904,-8.895 l 0,0 c -0.032,-0.124 -0.049,-0.254 -0.077,-0.379 l 0,0 c -0.059,-0.264 -0.119,-0.522 -0.16,-0.789 l 0,0 c -0.059,-0.38 -0.098,-0.766 -0.119,-1.155 l 0,0 c -0.002,-0.015 -0.005,-0.027 -0.006,-0.04 l 0,0 c -0.058,-1.107 0.045,-2.237 0.299,-3.367 l 0,0 c 0.024,-0.103 0.037,-0.21 0.064,-0.315 l 0,0 0,-0.002 c 1.562,-6.175 7.52,-9.881 13.712,-9.148 l 0,0 c 0.051,0.007 0.097,0.007 0.148,0.012 l 0,0 c 3.048,0.226 5.735,0.046 8.204,-0.305 l 0,0 c 7.963,-1.129 13.282,-6.342 15.009,-12.718 l 0,0 c 2.497,-9.206 -2.309,-18.012 -13.161,-22.526 l 0,0 c -6.235,-2.593 -10.48,-8.362 -8.819,-14.915 l 0,0 c 1.665,-6.584 8.354,-10.574 14.94,-8.905 l 0,0 c 6.172,1.564 9.619,7.496 9.144,13.715 l 0,0 c -0.885,11.586 2.21,18.376 15.279,24.406 l 0,0 -0.001,0 c 0.325,0.152 0.642,0.314 0.95,0.494 l 0,0 c 0.006,0.003 0.011,0.009 0.015,0.009 l 0,0 c 1.23,0.712 2.309,1.619 3.205,2.672 l 0,0 c 0.011,0.012 0.022,0.025 0.034,0.038 l 0,0 c 0.215,0.258 0.421,0.521 0.614,0.792 l 0,0 c 0.007,0.015 0.017,0.024 0.024,0.036 l 0,0 c 0.395,0.559 0.744,1.143 1.042,1.762 l 0,0 c 0.002,0.003 0.007,0.011 0.009,0.016 l 0,0 c 0.141,0.294 0.269,0.596 0.387,0.899 l 0,0 c 0.013,0.034 0.025,0.069 0.038,0.103 l 0,0 c 0.113,0.293 0.211,0.59 0.3,0.894 l 0,0 c 0.014,0.044 0.024,0.085 0.033,0.123 l 0,0 c 0.088,0.308 0.164,0.617 0.226,0.932 l 0,0 c 0.005,0.024 0.009,0.049 0.014,0.076 l 0,0 c 0.061,0.317 0.109,0.636 0.147,0.964 l 0,0 c 10e-4,0.011 0.003,0.028 0.004,0.038 l 0,0 c 0.035,0.322 0.052,0.644 0.061,0.97 l 0,0 c 0,0.048 0.004,0.095 0.004,0.147 l 0,0 c 0.005,0.309 -0.004,0.626 -0.024,0.939 l 0,0 c -0.002,0.056 -0.006,0.112 -0.011,0.168 l 0,0 c -0.024,0.321 -0.06,0.639 -0.11,0.953 l 0,0 c -0.005,0.047 -0.016,0.093 -0.023,0.137 l 0,0 c -0.055,0.336 -0.122,0.67 -0.207,1.006 l 0,0 c -0.086,0.333 -0.187,0.658 -0.296,0.981 l 0,0 c -0.015,0.042 -0.028,0.087 -0.044,0.128 l 0,0 c -0.107,0.303 -0.229,0.601 -0.358,0.891 l 0,0 c -0.023,0.051 -0.046,0.103 -0.069,0.157 l 0,0 c -0.133,0.284 -0.276,0.564 -0.428,0.839 l 0,0 c -0.022,0.041 -0.048,0.084 -0.073,0.126 l 0,0 c -0.163,0.278 -0.331,0.554 -0.514,0.819 l 0,0 c -0.007,0.013 -0.015,0.024 -0.025,0.034 l 0,0 c -0.184,0.27 -0.38,0.529 -0.587,0.781 l 0,0 c -0.018,0.018 -0.03,0.039 -0.046,0.059 l 0,0 c -0.207,0.245 -0.421,0.484 -0.643,0.712 l 0,0 c -0.03,0.03 -0.057,0.06 -0.087,0.088 l 0,0 c -0.222,0.226 -0.45,0.443 -0.69,0.648 l 0,0 c -0.028,0.024 -0.055,0.047 -0.083,0.072 l 0,0 c -0.249,0.211 -0.503,0.412 -0.766,0.604 l 0,0 c -0.007,0.005 -0.014,0.01 -0.02,0.014 l 0,0 c -0.554,0.398 -1.14,0.748 -1.751,1.051 l 0,0 c -0.012,0.006 -0.026,0.013 -0.04,0.021 l 0,0 c -0.3,0.145 -0.606,0.282 -0.917,0.402 l 0,0 c -0.016,0.009 -0.033,0.012 -0.05,0.018 l 0,0 c -1.288,0.5 -2.668,0.787 -4.086,0.826 l 0,0 -0.021,0 c -0.355,0.009 -0.711,0.003 -1.069,-0.018 l 0,0 0.002,0.002 c -10.36,-0.437 -17.495,2.072 -21.82,7.792 l 0,0 c -1.086,1.546 -2.06,3.302 -2.887,5.292 l 0,0 c -0.018,0.042 -0.04,0.082 -0.058,0.125 l 0,0 c -2.066,5.299 -6.648,9.045 -11.971,9.045 l 0,0 c -0.067,0 -0.134,0 -0.201,-0.002"
           style="fill:url(#radialGradient3935);stroke:none"
           id="path52"
           inkscape:connector-curvature="0" /></g></g><g
       id="g54"
       style="fill:#2f3033;fill-opacity:1"
       transform="matrix(1.300881,0,0,1.300881,10.562206,-21.075858)"><g
         id="g56"
         clip-path="url(#clipPath58)"
         style="fill:#2f3033;fill-opacity:1"><g
           id="g62"
           transform="translate(294.6406,215.6523)"
           style="fill:#2f3033;fill-opacity:1"><path
             d="m 0,0 c 3.52,0 4.8,1.12 4.8,3.2 0,2.56 -2.4,3.6 -6.4,4.8 -7.28,2.16 -15.201,5.12 -15.201,14.4 0,6.8 4.401,11.201 14.401,11.201 7.2,0 12.8,-1.6 12.8,-1.6 0.4,-0.16 0.72,-0.48 0.8,-0.801 0,0 0.8,-6.08 0.8,-6.399 0,-0.481 -0.32,-0.8 -0.8,-0.8 -0.4,0 -6.8,1.6 -13.6,1.6 -3.2,0 -4.8,-1.121 -4.8,-3.201 0,-2.559 2.4,-3.599 6.4,-4.799 C 6.48,15.44 14.4,12.561 14.4,3.2 14.4,-3.2 9.2,-8 0,-8 c -8.8,0 -15.201,2.399 -15.201,2.399 -0.4,0.161 -0.719,0.481 -0.799,0.801 0,0 -0.801,6.08 -0.801,6.4 0,0.48 0.321,0.8 0.801,0.8 0.399,0 8.8,-2.4 16,-2.4"
             style="fill:#2f3033;fill-opacity:1;fill-rule:nonzero;stroke:none"
             id="path64"
             inkscape:connector-curvature="0" /></g><g
           id="g66"
           transform="translate(325.5996,232.4531)"
           style="fill:#2f3033;fill-opacity:1"><path
             d="M 0,0 17.92,0 C 17.601,4.479 15.6,8.8 10,8.8 2.4,8.8 0.56,5.04 0,0 m 0,-8.001 c 0.64,-5.12 2.8,-8.8 10.8,-8.8 6.4,0 13.2,1.6 13.6,1.6 0.48,0 0.8,-0.32 0.8,-0.8 0,-0.24 -0.8,-6.4 -0.8,-6.4 -0.08,-0.4 -0.32,-0.72 -0.799,-0.8 0,0 -5.601,-1.6 -12.801,-1.6 -17.2,0 -20.8,9.361 -20.8,20.8 0,11.44 3.68,20.721 20,20.721 11.36,0 17.681,-6.321 17.681,-20.721 l 0,-3.199 c 0,-0.401 -0.401,-0.801 -0.88,-0.801 L 0,-8.001 z"
             style="fill:#2f3033;fill-opacity:1;fill-rule:nonzero;stroke:none"
             id="path68"
             inkscape:connector-curvature="0" /></g><g
           id="g70"
           transform="translate(362.3184,266.9336)"
           style="fill:#2f3033;fill-opacity:1"><path
             d="m 0,0 c 0,0.479 0.32,0.8 0.801,0.8 l 8,0.8 c 0.479,0 0.8,-0.32 0.8,-0.8 l 0,-52.881 c 0,-3.2 0.799,-5.28 0.799,-5.601 0,-0.479 -0.32,-0.799 -0.799,-0.799 l -8,0 c -0.321,0 -0.641,0.32 -0.8,0.799 0,0 -0.801,2.401 -0.801,5.601 L 0,0 z"
             style="fill:#2f3033;fill-opacity:1;fill-rule:nonzero;stroke:none"
             id="path72"
             inkscape:connector-curvature="0" /></g><g
           id="g74"
           transform="translate(383.6777,266.9336)"
           style="fill:#2f3033;fill-opacity:1"><path
             d="m 0,0 c 0,0.479 0.32,0.8 0.801,0.8 l 8,0.8 c 0.479,0 0.8,-0.32 0.8,-0.8 l 0,-52.881 c 0,-3.2 0.799,-5.28 0.799,-5.601 0,-0.479 -0.32,-0.799 -0.799,-0.799 l -8,0 c -0.321,0 -0.641,0.32 -0.8,0.799 0,0 -0.801,2.401 -0.801,5.601 L 0,0 z"
             style="fill:#2f3033;fill-opacity:1;fill-rule:nonzero;stroke:none"
             id="path76"
             inkscape:connector-curvature="0" /></g><g
           id="g78"
           transform="translate(412.7979,232.4531)"
           style="fill:#2f3033;fill-opacity:1"><path
             d="M 0,0 17.92,0 C 17.601,4.479 15.6,8.8 10,8.8 2.399,8.8 0.56,5.04 0,0 m 0,-8.001 c 0.64,-5.12 2.8,-8.8 10.8,-8.8 6.4,0 13.2,1.6 13.6,1.6 0.48,0 0.8,-0.32 0.8,-0.8 0,-0.24 -0.8,-6.4 -0.8,-6.4 -0.08,-0.4 -0.32,-0.72 -0.799,-0.8 0,0 -5.601,-1.6 -12.801,-1.6 -17.2,0 -20.801,9.361 -20.801,20.8 0,11.44 3.681,20.721 20.001,20.721 11.36,0 17.681,-6.321 17.681,-20.721 l 0,-3.199 c 0,-0.401 -0.401,-0.801 -0.88,-0.801 L 0,-8.001 z"
             style="fill:#2f3033;fill-opacity:1;fill-rule:nonzero;stroke:none"
             id="path80"
             inkscape:connector-curvature="0" /></g><g
           id="g82"
           transform="translate(467.1182,215.6523)"
           style="fill:#2f3033;fill-opacity:1"><path
             d="M 0,0 C 8,0 10.4,4.8 10.4,12.8 10.4,20.801 8,25.601 0,25.601 -8,25.601 -10.4,20.801 -10.4,12.8 -10.4,4.8 -8,0 0,0 M 0,33.601 C 12,33.601 20.001,27.2 20.001,12.8 20.001,-1.6 12,-8 0,-8 c -12,0 -20,6.4 -20,20.8 0,14.4 8,20.801 20,20.801"
             style="fill:#2f3033;fill-opacity:1;fill-rule:nonzero;stroke:none"
             id="path84"
             inkscape:connector-curvature="0" /></g></g></g><g
       transform="matrix(0.8,0,0,-0.8,-35.278182,613.48059)"
       style="font-size:40px;font-style:normal;font-weight:normal;line-height:125%;letter-spacing:0px;word-spacing:0px;fill:#2f3033;fill-opacity:1;stroke:none;font-family:Sans"
       id="flowRoot4220"><path
         d="m 659.61119,479.04482 3.06,10.2 c 0.068,0.204 0.17,0.34 0.34,0.34 l 4.08,0 c 0.17,0 0.272,-0.136 0.34,-0.34 0,0 5.78,-16.184 5.78,-16.32 0,-0.204 -0.136,-0.34 -0.34,-0.34 l -3.57,0 c -0.136,0 -0.272,0.136 -0.34,0.34 l -3.536,10.88 -0.374,2.38 -0.374,-2.38 -3.366,-10.88 c -0.068,-0.17 -0.17,-0.34 -0.34,-0.34 l -1.326,0 -2.55,0.34 c -0.136,0.034 -0.272,0.17 -0.34,0.34 l -3.23,10.54 -0.374,2.38 -0.374,-2.38 -3.536,-10.88 c -0.068,-0.204 -0.204,-0.34 -0.34,-0.34 -0.17,0 -3.4,0.34 -3.4,0.34 -0.204,0.034 -0.34,0.102 -0.34,0.34 0,0.136 5.61,15.98 5.61,15.98 0.068,0.204 0.17,0.34 0.34,0.34 l 4.08,0 c 0.17,0 0.272,-0.136 0.34,-0.34 l 3.06,-10.2 0.51,-2.72 0.51,2.72"
         style="font-size:34px;text-align:end;letter-spacing:-1px;text-anchor:end;fill:#2f3033;font-family:Mentone;-inkscape-font-specification:Mentone"
         id="path3043" /><path
         d="m 682.73312,475.64482 c 2.38,0 3.23001,1.836 3.366,3.74 l -7.616,0 c 0.238,-2.142 1.02001,-3.74 4.25,-3.74 m 7.14,7.14 c 0.204,0 0.374,-0.17 0.374,-0.34 l 0,-1.36 c 0,-6.11999 -2.686,-8.806 -7.514,-8.806 -6.93599,0 -8.5,3.94401 -8.5,8.806 0,4.862 1.53001,8.84 8.84,8.84 3.06,0 5.44,-0.68 5.44,-0.68 0.204,-0.034 0.30601,-0.17 0.34,-0.34 0,0 0.34,-2.618 0.34,-2.72 0,-0.204 -0.136,-0.34 -0.34,-0.34 -0.16999,0 -3.06,0.68 -5.78,0.68 -3.39999,0 -4.318,-1.564 -4.59,-3.74 l 11.39,0"
         style="font-size:34px;text-align:end;letter-spacing:-1px;text-anchor:end;fill:#2f3033;font-family:Mentone;-inkscape-font-specification:Mentone"
         id="path3045" /><path
         d="m 696.88491,489.24482 c 0.034,-0.238 0.238,-1.122 0.238,-1.122 0,0 1.972,1.802 4.522,1.802 6.83399,0 7.82,-3.978 7.82,-8.84 0,-4.86199 -0.98601,-8.84 -7.82,-8.84 -2.074,0 -3.604,0.986 -4.42,1.7 l 0,-9.52 c 0,-0.204 -0.17,-0.34 -0.34,-0.34 -0.204,0 -3.4,0.34 -3.4,0.34 -0.204,0.034 -0.34,0.136 -0.34,0.34 l 0,21.76 c 0,1.7 -0.34,2.516 -0.34,2.72 0,0.204 0.136,0.34 0.34,0.34 l 3.4,0 c 0.136,0 0.272,-0.136 0.34,-0.34 m 0.34,-8.16 c 0,-3.06 0.952,-5.44 4.42,-5.44 3.12799,0 3.74,2.38 3.74,5.44 0,3.06 -0.61201,5.44 -3.74,5.44 -3.468,0 -4.352,-2.142 -4.42,-5.44"
         style="font-size:34px;text-align:end;letter-spacing:-1px;text-anchor:end;fill:#2f3033;font-family:Mentone;-inkscape-font-specification:Mentone"
         id="path3047" /><path
         d="m 734.37963,478.02482 c -0.204,1.224 -0.51001,2.686 -1.05401,4.046 l -4.21599,-4.624 c 3.12799,-1.156 5.94999,-2.414 5.94999,-5.882 0,-3.4 -1.972,-6.12 -7.14,-6.12 -5.16799,0 -7.14,2.72 -7.14,6.12 0,1.394 0.68001,2.856 2.34601,4.794 -2.346,0.986 -4.04601,3.026 -4.04601,6.426 0,3.978 2.04001,7.14 8.84,7.14 2.244,0 3.60401,-0.646 5.372,-2.006 l 0.13601,-0.102 c 0.78199,0.85 1.29199,1.428 1.29199,1.428 0.136,0.17 0.37401,0.34 0.54401,0.34 l 4.216,0 c 0.20399,0 0.33999,-0.136 0.33999,-0.34 0,-0.034 -1.7,-1.938 -3.91,-4.352 1.428,-2.176 2.21001,-4.896 2.346,-6.868 0,-0.238 -0.17,-0.34 -0.34,-0.34 l -3.196,0 c -0.16999,0 -0.306,0.136 -0.33999,0.34 m -8.84001,1.02 c 1.734,1.904 3.87601,4.284 5.644,6.29 -0.84999,0.748 -1.938,1.19 -3.264,1.19 -4.07999,0 -4.76,-1.734 -4.76,-3.74 0,-1.734 0.91801,-2.822 2.38,-3.74 m 1.156,-4.182 c -0.81599,-0.816 -1.83599,-1.938 -1.83599,-3.298 0,-1.632 0.578,-2.72 3.05999,-2.72 2.516,0 3.06001,1.36 3.06001,2.72 0,1.7 -2.07401,2.346 -4.28401,3.298"
         style="font-size:34px;text-align:end;letter-spacing:-1px;text-anchor:end;fill:#2f3033;font-family:Mentone;-inkscape-font-specification:Mentone"
         id="path3049" /><path
         d="m 749.77381,489.24482 c 0,0.204 0.136,0.34 0.34,0.34 l 3.4,0 c 0.204,0 0.34,-0.136 0.34,-0.34 l 0,-9.52 c 0,-2.72 1.36001,-4.08 4.42,-4.08 1.7,0 2.72,0.68 2.72,4.08 l 0,9.52 c 0,0.204 0.136,0.34 0.34,0.34 l 3.4,0 c 0.204,0 0.34,-0.136 0.34,-0.34 l 0,-9.52 c 0,-2.72 1.42801,-4.08 4.42,-4.08 1.7,0 2.72,0.68 2.72,4.08 l 0,9.52 c 0,0.204 0.136,0.34 0.34,0.34 l 3.4,0 c 0.204,0 0.34,-0.136 0.34,-0.34 l 0,-9.52 c 0,-5.09999 -1.36,-7.48 -6.8,-7.48 -3.05999,0 -4.692,1.972 -5.236,2.72 -0.884,-1.836 -2.686,-2.72 -5.984,-2.72 -3.05999,0 -4.556,1.938 -4.556,1.938 l -0.204,-1.258 c -0.034,-0.204 -0.204,-0.34 -0.34,-0.34 l -3.4,0 c -0.204,0 -0.34,0.136 -0.34,0.34 0,0.136 0.34,1.02 0.34,2.38 l 0,13.94"
         style="font-size:34px;text-align:end;letter-spacing:-1px;text-anchor:end;fill:#2f3033;font-family:Mentone;-inkscape-font-specification:Mentone"
         id="path3051" /><path
         d="m 783.14356,481.08482 c 0,-3.4 1.02001,-5.44 4.42,-5.44 3.4,0 4.42,2.04 4.42,5.44 0,3.4 -1.02,5.44 -4.42,5.44 -3.39999,0 -4.42,-2.04 -4.42,-5.44 m -4.08,0 c 0,6.12 3.40001,8.84 8.5,8.84 5.1,0 8.5,-2.72 8.5,-8.84 0,-6.11999 -3.4,-8.84 -8.5,-8.84 -5.09999,0 -8.5,2.72001 -8.5,8.84"
         style="font-size:34px;text-align:end;letter-spacing:-1px;text-anchor:end;fill:#2f3033;font-family:Mentone;-inkscape-font-specification:Mentone"
         id="path3053" /><path
         d="m 802.77944,489.24482 c 0.034,-0.238 0.238,-1.122 0.238,-1.122 0,0 1.972,1.802 4.522,1.802 6.83399,0 7.82,-3.978 7.82,-8.84 0,-4.86199 -0.98601,-8.84 -7.82,-8.84 -2.074,0 -3.604,0.986 -4.42,1.7 l 0,-9.52 c 0,-0.204 -0.17,-0.34 -0.34,-0.34 -0.204,0 -3.4,0.34 -3.4,0.34 -0.204,0.034 -0.34,0.136 -0.34,0.34 l 0,21.76 c 0,1.7 -0.34,2.516 -0.34,2.72 0,0.204 0.136,0.34 0.34,0.34 l 3.4,0 c 0.136,0 0.272,-0.136 0.34,-0.34 m 0.34,-8.16 c 0,-3.06 0.952,-5.44 4.42,-5.44 3.12799,0 3.74,2.38 3.74,5.44 0,3.06 -0.61201,5.44 -3.74,5.44 -3.468,0 -4.352,-2.142 -4.42,-5.44"
         style="font-size:34px;text-align:end;letter-spacing:-1px;text-anchor:end;fill:#2f3033;font-family:Mentone;-inkscape-font-specification:Mentone"
         id="path3055" /><path
         d="m 818.42456,486.86482 c 0,1.36 0.34,2.38 0.34,2.38 0.068,0.204 0.204,0.34 0.34,0.34 l 3.4,0 c 0.204,0 0.34,-0.136 0.34,-0.34 0,-0.136 -0.34,-1.02 -0.34,-2.38 l 0,-13.94 c 0,-0.204 -0.136,-0.34 -0.34,-0.34 l -3.4,0.34 c -0.204,0 -0.34,0.136 -0.34,0.34 l 0,13.6 m -0.34,-19.04 c 0,1.326 1.054,2.38 2.38,2.38 1.326,0 2.38,-1.054 2.38,-2.38 0,-1.326 -1.054,-2.38 -2.38,-2.38 -1.326,0 -2.38,1.054 -2.38,2.38"
         style="font-size:34px;text-align:end;letter-spacing:-1px;text-anchor:end;fill:#2f3033;font-family:Mentone;-inkscape-font-specification:Mentone"
         id="path3057" /><path
         d="m 826.48981,486.86482 c 0,1.36 0.34,2.38 0.34,2.38 0.068,0.204 0.204,0.34 0.34,0.34 l 3.4,0 c 0.204,0 0.34,-0.136 0.34,-0.34 0,-0.136 -0.34,-1.02 -0.34,-2.38 l 0,-22.474 c 0,-0.204 -0.136,-0.34 -0.34,-0.34 l -3.4,0.34 c -0.204,0 -0.34,0.136 -0.34,0.34 l 0,22.134"
         style="font-size:34px;text-align:end;letter-spacing:-1px;text-anchor:end;fill:#2f3033;font-family:Mentone;-inkscape-font-specification:Mentone"
         id="path3059" /><path
         d="m 842.13547,475.64482 c 2.38,0 3.23,1.836 3.366,3.74 l -7.616,0 c 0.238,-2.142 1.02,-3.74 4.25,-3.74 m 7.14,7.14 c 0.204,0 0.374,-0.17 0.374,-0.34 l 0,-1.36 c 0,-6.11999 -2.68601,-8.806 -7.514,-8.806 -6.93599,0 -8.5,3.94401 -8.5,8.806 0,4.862 1.53001,8.84 8.84,8.84 3.06,0 5.44,-0.68 5.44,-0.68 0.204,-0.034 0.306,-0.17 0.34,-0.34 0,0 0.34,-2.618 0.34,-2.72 0,-0.204 -0.136,-0.34 -0.34,-0.34 -0.17,0 -3.06,0.68 -5.78,0.68 -3.4,0 -4.318,-1.564 -4.59,-3.74 l 11.39,0"
         style="font-size:34px;text-align:end;letter-spacing:-1px;text-anchor:end;fill:#2f3033;font-family:Mentone;-inkscape-font-specification:Mentone"
         id="path3061" /></g></g></svg>