<svg enable-background="new 0 0 200 67" height="67" viewBox="0 0 200 67" width="200" xmlns="http://www.w3.org/2000/svg" xmlns:xlink="http://www.w3.org/1999/xlink"><radialGradient id="a" cx="56.5441" cy="542.2639" gradientTransform="matrix(108.0652 0 0 -108.0652 -6097.1499 59189.7773)" gradientUnits="userSpaceOnUse" r=".365"><stop offset="0" stop-color="#00d0fe"/><stop offset=".6909" stop-color="#0093e9"/><stop offset="1" stop-color="#0077b2"/></radialGradient><radialGradient id="b" cx="56.3695" cy="542.0788" gradientTransform="matrix(112.9965 0 0 -112.9965 -6343.0503 61832.6211)" gradientUnits="userSpaceOnUse" r=".3648"><stop offset="0" stop-color="#f79606"/><stop offset="1" stop-color="#f96603"/></radialGradient><g transform="matrix(1.25 0 0 -1.25 0 744.09454)"><path d="m14.963 594.554c-2.929-.743-4.565-3.557-4.339-6.509l0 0c .419-5.498-1.05-8.72-7.252-11.581l0 0h .002c-.155-.073-.305-.149-.451-.234l0 0c-.003-.002-.005-.003-.007-.006l0 0c-.583-.335-1.096-.766-1.521-1.266l0 0c-.005-.006-.01-.013-.016-.019l0 0c-.102-.12-.2-.245-.291-.376l0 0c-.003-.005-.008-.01-.012-.016l0 0c-.188-.264-.353-.543-.494-.835l0 0c-.001-.003-.003-.006-.005-.009l0 0c-.067-.14-.128-.282-.183-.427l0 0c-.007-.016-.013-.032-.019-.048l0 0c-.054-.139-.1-.281-.142-.426l0 0c-.007-.02-.011-.038-.016-.059l0 0c-.041-.145-.077-.291-.107-.441l0 0c-.003-.012-.005-.024-.007-.035l0 0c-.028-.152-.053-.303-.07-.459l0 0c-.001-.005-.002-.013-.002-.019l0 0c-.016-.152-.025-.304-.029-.459l0 0c0-.023-.001-.045-.001-.07l0 0c-.003-.148.001-.298.011-.446l0 0c0-.028.003-.055.005-.081l0 0c .011-.152.029-.303.052-.452l0 0c .002-.022.008-.044.011-.065l0 0c .026-.158.057-.318.098-.477l0 0c .04-.159.088-.313.14-.466l0 0c .007-.02.014-.04.021-.061l0 0c .051-.144.108-.285.17-.423l0 0c .011-.025.022-.048.033-.075l0 0c .063-.134.13-.267.203-.398l0 0c .011-.02.023-.039.034-.059l0 0c .077-.133.157-.263.244-.389l0 0c .004-.005.007-.011.012-.016l0 0c .087-.129.181-.251.279-.371l0 0c .007-.009.014-.018.021-.028l0 0c .098-.116.2-.229.305-.338l0 0c .014-.014.027-.029.041-.043l0 0c .106-.108.214-.209.328-.308l0 0c .013-.009.026-.021.039-.033l0 0c .118-.1.239-.196.364-.287l0 0c .003-.002.007-.005.01-.007l0 0c .262-.189.54-.353.831-.498l0 0c .005-.004.012-.006.018-.01l0 0c .143-.07.288-.134.436-.191l0 0c .007-.005.015-.006.023-.008l0 0c .612-.238 1.267-.374 1.939-.393l0 0h .01c.169-.004.337-.001.507.009l0 0v-.001c4.916.207 8.302-.983 10.354-3.698l0 0c .516-.734.977-1.566 1.37-2.511l0 0c .009-.02.019-.039.027-.059l0 0c .994-2.546 3.21-4.337 5.777-4.291l0 0c .416.007.841.057 1.274.166l0 0c2.149.545 3.715 2.216 4.225 4.223l0 0c .014.059.023.12.037.179l0 0c .028.125.056.248.076.374l0 0c .028.181.046.364.057.548l0 0c0 .006.002.014.002.02l0 0c .029.524-.021 1.06-.141 1.596l0 0c-.011.05-.017.099-.03.15l0 0v .002c-.741 2.931-3.569 4.689-6.507 4.341l0 0c-.024-.003-.046-.003-.07-.005l0 0c-1.446-.105-2.721-.023-3.892.145l0 0c-3.78.535-6.304 3.009-7.123 6.035l0 0c-1.185 4.37 1.096 8.548 6.245 10.691l0 0c2.959 1.232 4.974 3.968 4.185 7.079l0 0c-.669 2.644-3.045 4.405-5.652 4.405l0 0c-.475 0-.956-.059-1.437-.181" fill="url(#a)"/><path d="m24.438 581.621c-.416-.005-.841-.056-1.275-.166l0 0c-2.148-.544-3.714-2.216-4.225-4.221l0 0c-.016-.059-.024-.12-.037-.18l0 0c-.028-.126-.056-.248-.076-.375l0 0c-.028-.18-.046-.363-.056-.548l0 0c-.001-.007-.003-.013-.003-.019l0 0c-.027-.526.021-1.062.142-1.598l0 0c .011-.048.017-.099.03-.149l0 0v-.001c.741-2.93 3.569-4.689 6.507-4.341l0 0c .024.003.046.003.071.006l0 0c1.446.107 2.721.022 3.893-.145l0 0c3.779-.536 6.303-3.01 7.123-6.036l0 0c1.185-4.369-1.096-8.548-6.246-10.69l0 0c-2.959-1.23-4.973-3.969-4.185-7.078l0 0c .79-3.124 3.965-5.017 7.09-4.226l0 0c2.929.742 4.565 3.557 4.339 6.509l0 0c-.42 5.498 1.049 8.72 7.25 11.582l0 0h0c .154.072.305.149.451.234l0 0c .003.001.005.004.007.004l0 0c .584.338 1.096.769 1.521 1.268l0 0c .005.006.011.013.016.018l0 0c .102.123.2.248.291.377l0 0c .003.007.008.012.011.017l0 0c .188.265.353.542.494.836l0 0c .001.002.004.005.004.008l0 0c .067.139.128.282.184.427l0 0c .006.016.012.032.018.048l0 0c .054.139.1.28.143.425l0 0c .006.02.011.04.015.058l0 0c .042.146.078.293.107.442l0 0c .002.011.004.023.007.036l0 0c .029.15.052.302.07.458l0 0c0 .005.001.013.002.018l0 0c .016.153.025.305.029.46l0 0c0 .023.002.045.002.07l0 0c .002.147-.002.297-.011.446l0 0c-.001.027-.003.052-.005.08l0 0c-.011.152-.029.303-.052.452l0 0c-.002.023-.007.044-.011.066l0 0c-.026.159-.058.318-.098.477l0 0c-.041.158-.089.312-.141.466l0 0c-.007.02-.013.041-.021.061l0 0c-.051.144-.109.285-.17.423l0 0c-.011.024-.021.048-.032.074l0 0c-.063.135-.131.268-.203.399l0 0c-.011.02-.023.04-.035.06l0 0c-.078.131-.157.262-.244.387l0 0c-.003.006-.007.012-.012.017l0 0c-.088.127-.18.251-.279.37l0 0c-.008.009-.014.019-.021.028l0 0c-.098.116-.2.229-.305.338l0 0c-.014.014-.027.028-.041.041l0 0c-.105.107-.213.21-.327.307l0 0c-.014.012-.027.023-.039.034l0 0c-.118.1-.239.195-.364.287l0 0c-.003.002-.007.005-.009.006l0 0c-.263.189-.541.355-.831.499l0 0c-.005.002-.012.006-.019.009l0 0c-.142.07-.288.134-.435.191l0 0c-.008.005-.016.005-.023.009l0 0c-.611.237-1.266.373-1.939.391l0 0h-.01c-.168.005-.338.002-.507-.008l0 0 .001.001c-4.917-.207-8.302.984-10.355 3.698l0 0c-.515.734-.978 1.566-1.37 2.512l0 0c-.009.02-.019.038-.028.059l0 0c-.98 2.515-3.154 4.292-5.68 4.292l0 0c-.034.001-.066.001-.098 0" fill="url(#b)"/><g fill="#2f3033" transform="matrix(1.300881 0 0 1.300881 10.562206 -21.075858)"><path d="m-249.981 230.475c1.284 0 1.751.409 1.751 1.167 0 .934-.876 1.313-2.335 1.751-2.656.788-5.545 1.868-5.545 5.253 0 2.48 1.606 4.086 5.254 4.086 2.626 0 4.669-.584 4.669-.584.146-.058.263-.175.292-.292 0 0 .292-2.218.292-2.334 0-.175-.117-.291-.292-.291-.146 0-2.481.583-4.961.583-1.168 0-1.751-.408-1.751-1.167 0-.933.875-1.313 2.335-1.751 2.656-.789 5.545-1.839 5.545-5.254 0-2.335-1.897-4.086-5.253-4.086-3.21 0-5.546.875-5.546.875-.146.059-.262.175-.291.292 0 0-.292 2.218-.292 2.335 0 .175.117.292.292.292.144.001 3.209-.875 5.836-.875" transform="translate(294.6406 215.6523)"/><path d="m-269.647 219.803h6.537c-.117 1.635-.846 3.211-2.889 3.211-2.772 0-3.443-1.372-3.648-3.211m0-2.918c.234-1.868 1.022-3.211 3.94-3.211 2.335 0 4.815.584 4.962.584.175 0 .292-.117.292-.292 0-.088-.292-2.334-.292-2.334-.029-.146-.117-.263-.292-.292 0 0-2.043-.584-4.67-.584-6.275 0-7.587 3.415-7.587 7.587 0 4.174 1.343 7.559 7.296 7.559 4.144 0 6.451-2.306 6.451-7.559v-1.167c0-.146-.147-.292-.321-.292h-9.779z" transform="translate(325.5996 232.4531)"/><path d="m-292.971 197.901c0 .175.117.292.292.292l2.918.292c.175 0 .292-.117.292-.292v-19.291c0-1.167.292-1.927.292-2.043 0-.175-.117-.292-.292-.292h-2.918c-.117 0-.234.117-.292.292 0 0-.292.876-.292 2.043z" transform="translate(362.3184 266.9336)"/><path d="m-306.539 197.901c0 .175.118.292.292.292l2.919.292c.174 0 .292-.117.292-.292v-19.291c0-1.167.291-1.927.291-2.043 0-.175-.117-.292-.291-.292h-2.919c-.117 0-.234.117-.292.292 0 0-.292.876-.292 2.043z" transform="translate(383.6777 266.9336)"/><path d="m-325.036 219.803h6.537c-.116 1.635-.846 3.211-2.889 3.211-2.773 0-3.443-1.372-3.648-3.211m0-2.918c.234-1.868 1.022-3.211 3.94-3.211 2.335 0 4.815.584 4.961.584.175 0 .292-.117.292-.292 0-.088-.292-2.334-.292-2.334-.029-.146-.117-.263-.291-.292 0 0-2.043-.584-4.67-.584-6.274 0-7.588 3.415-7.588 7.587 0 4.174 1.343 7.559 7.296 7.559 4.144 0 6.451-2.306 6.451-7.559v-1.167c0-.146-.147-.292-.322-.292h-9.777z" transform="translate(412.7979 232.4531)"/><path d="m-359.54 230.475c2.918 0 3.794 1.751 3.794 4.669 0 2.92-.876 4.67-3.794 4.67s-3.794-1.751-3.794-4.67c0-2.918.876-4.669 3.794-4.669m0 12.258c4.377 0 7.296-2.336 7.296-7.589 0-5.252-2.919-7.587-7.296-7.587s-7.296 2.335-7.296 7.587c0 5.254 2.919 7.589 7.296 7.589" transform="translate(467.1182 215.6523)"/></g></g></svg>