<svg width="320" height="109" viewBox="0 0 320 109" fill="none" xmlns="http://www.w3.org/2000/svg">
<g clip-path="url(#clip0_959_3607)">
<path d="M59.7166 71.7406C59.7748 71.4904 59.8331 71.2402 59.872 70.9803C59.9305 70.6137 59.9695 70.2443 59.9886 69.8736C60.0356 68.7846 59.9376 67.6941 59.6971 66.6304C59.6971 66.5342 59.6971 66.4283 59.6291 66.3321C58.8762 63.5072 57.1064 61.0525 54.6531 59.4306C52.1999 57.8086 49.2325 57.1314 46.3102 57.5265H46.1742C43.5158 57.7174 40.8443 57.6173 38.2081 57.2282C30.4363 56.1503 25.3069 51.1268 23.636 44.9966C21.2073 36.1332 25.8801 27.6741 36.4206 23.3146C42.4729 20.8125 46.6016 15.2693 44.989 8.95618C44.6066 7.44633 43.9272 6.02603 42.9899 4.7766C42.0527 3.52717 40.8758 2.47315 39.5267 1.67489C38.1777 0.876622 36.6829 0.349793 35.1281 0.12456C33.5732 -0.100672 31.9888 -0.0198837 30.4654 0.3623C24.4714 1.86358 21.1199 7.58 21.5862 13.5659C22.4411 24.71 19.4295 31.2444 6.74203 37.0475C6.40998 37.191 6.08572 37.3516 5.77056 37.5287C4.59096 38.199 3.53886 39.0686 2.66184 40.0982C2.45131 40.3414 2.25351 40.5951 2.06924 40.8584C1.70001 41.3962 1.37514 41.9627 1.09777 42.5522C0.96176 42.8313 0.845183 43.12 0.728606 43.4183C0.724737 43.4503 0.724737 43.4826 0.728606 43.5145C0.621744 43.8033 0.524596 44.0823 0.437164 44.3807V44.4962C0.349731 44.7945 0.272013 45.0928 0.213724 45.3911C0.213724 45.3911 0.213724 45.3911 0.213724 45.4681C0.155436 45.7633 0.106862 46.084 0.0680032 46.4305C0.0680032 46.7385 0.00971475 47.0464 0 47.3929V47.5276C0 47.8259 0 48.1339 0 48.4418C0 48.4899 0 48.5477 0 48.5958C0 48.9038 0.0582885 49.2117 0.106862 49.5582C0.10221 49.5997 0.10221 49.6417 0.106862 49.6833C0.156556 50.0076 0.224667 50.3289 0.310872 50.6456C0.38859 50.9632 0.485737 51.2808 0.5926 51.608C0.5926 51.608 0.5926 51.685 0.5926 51.7331C0.689747 52.0218 0.806324 52.3105 0.932616 52.5896C0.961105 52.6382 0.983919 52.6899 1.00062 52.7436C1.13663 53.013 1.27263 53.2825 1.41835 53.5423C1.41835 53.5905 1.46693 53.629 1.48636 53.6674C1.65151 53.9369 1.80694 54.1967 1.99152 54.4566C2.1761 54.7164 2.36068 54.9666 2.56469 55.2169C2.75899 55.4574 2.97271 55.6884 3.18644 55.9097L3.27387 55.9867C3.48529 56.2075 3.70908 56.4164 3.94419 56.6123C3.96533 56.6396 3.99175 56.6625 4.0219 56.6796C4.26477 56.8914 4.50764 57.0838 4.76023 57.2667C5.29534 57.6531 5.86431 57.9913 6.46031 58.2772C6.75175 58.4215 7.04319 58.5562 7.34435 58.6717H7.39292C8.6616 59.1608 10.0055 59.4309 11.3663 59.4705C11.716 59.4705 12.056 59.4705 12.4057 59.4705C22.4702 59.0567 29.3968 61.4722 33.6033 66.9769C34.7632 68.5953 35.7344 70.3387 36.4983 72.1736L36.5566 72.2891C38.587 77.457 43.1335 81.0851 48.3794 80.9985C49.2606 80.9844 50.1373 80.8714 50.9927 80.6617C53.0799 80.1396 54.9856 79.0678 56.5077 77.5599C58.0299 76.052 59.1118 74.1642 59.6388 72.0966C59.6777 71.9908 59.6874 71.8657 59.7166 71.7406Z" fill="#5C99D2"/>
<path d="M38.2873 36.1233C38.229 36.3836 38.1707 36.6342 38.1319 36.8849C38.0733 37.2554 38.0344 37.6287 38.0153 38.0032C37.96 39.0939 38.0548 40.1869 38.297 41.2521C38.297 41.3485 38.297 41.4546 38.365 41.551C39.1199 44.3799 40.8903 46.8377 43.3433 48.4622C45.7963 50.0866 48.7629 50.7659 51.6853 50.3723H51.831C54.4893 50.1782 57.161 50.2752 59.7979 50.6615C67.5704 51.7509 72.7003 56.7834 74.3714 62.9245C76.8003 71.8036 72.1271 80.2778 61.5856 84.6451C55.5424 87.1709 51.4132 92.7625 53.026 99.0483C53.4107 100.558 54.0912 101.978 55.0289 103.227C55.9665 104.475 57.1429 105.529 58.4907 106.326C59.8386 107.124 61.3316 107.65 62.8845 107.875C64.4374 108.101 66.0198 108.02 67.5413 107.638C73.5359 106.125 76.8878 100.408 76.4311 94.4111C75.5664 83.2471 78.5783 76.7011 91.2767 70.8877C91.5974 70.7335 91.9083 70.5792 92.2483 70.4057C93.426 69.7313 94.4777 68.8605 95.3573 67.8316C95.5614 67.5906 95.7654 67.3303 95.95 67.07C96.3182 66.5272 96.6431 65.9567 96.9216 65.3636C97.0576 65.0744 97.1839 64.7852 97.2908 64.4959C97.2946 64.4639 97.2946 64.4316 97.2908 64.3995C97.3976 64.1103 97.4948 63.8307 97.5822 63.5319C97.5822 63.5319 97.5822 63.4547 97.5822 63.4162C97.66 63.1173 97.7377 62.8184 97.796 62.5196C97.8007 62.4941 97.8007 62.468 97.796 62.4425C97.864 62.134 97.9028 61.8255 97.9417 61.4784C97.9417 61.1699 97.9417 60.8517 98 60.5143V60.3697C98 60.0708 98 59.772 98 59.4635C98 59.4635 98 59.3574 98 59.2996C98 58.9911 97.9514 58.6922 97.9028 58.3837V58.2487C97.9028 57.9306 97.7863 57.6028 97.7085 57.2847C97.6308 56.9665 97.5239 56.6484 97.4171 56.3206V56.1953C97.3102 55.906 97.1936 55.6168 97.0673 55.3372C97.0388 55.2886 97.016 55.2368 96.9993 55.183C96.873 54.9131 96.7272 54.6431 96.5815 54.3732V54.1996C96.428 53.927 96.2593 53.6631 96.0763 53.4091C95.8917 53.1488 95.7071 52.9078 95.5031 52.6571V52.5993C95.299 52.3679 95.095 52.1365 94.8715 51.9148L94.7938 51.828C94.5704 51.6159 94.3469 51.4038 94.1234 51.211L94.036 51.1339C93.7931 50.9314 93.5502 50.7386 93.2976 50.5554C92.758 50.1891 92.1894 49.8667 91.5974 49.5914C91.3059 49.4564 91.0047 49.3214 90.7035 49.2057C89.4342 48.7189 88.0901 48.4515 86.7298 48.4152C86.3897 48.4152 86.04 48.4152 85.6902 48.4152C75.6345 48.8394 68.6974 46.4196 64.4906 40.9051C63.3713 39.3126 62.4329 37.6022 61.6924 35.8051L61.6341 35.6798C59.6035 30.5124 55.0663 26.8778 49.8101 27.0031C48.9286 27.0127 48.0513 27.126 47.1966 27.3406C45.1102 27.8655 43.2053 28.9398 41.6833 30.4501C40.1613 31.9603 39.0786 33.8505 38.5496 35.9208C38.3359 35.8823 38.3165 36.0076 38.2873 36.1233Z" fill="#FF6D2A"/>
<path d="M133.921 72.2158C137.324 72.2158 138.562 71.1331 138.562 69.1223C138.562 66.6474 136.242 65.642 132.375 64.4819C125.337 62.3938 117.68 59.5322 117.68 50.5609C117.68 43.9871 121.934 39.7334 131.601 39.7334C135.774 39.7297 139.932 40.2493 143.975 41.2802C144.154 41.3431 144.316 41.4453 144.45 41.5791C144.584 41.7129 144.686 41.8751 144.749 42.0536C144.749 42.0536 145.522 47.9314 145.522 48.2407C145.528 48.3437 145.512 48.4468 145.475 48.5432C145.438 48.6395 145.381 48.727 145.308 48.8C145.235 48.8729 145.148 48.9297 145.051 48.9666C144.955 49.0035 144.852 49.0197 144.749 49.0141C140.424 48.0913 136.022 47.5734 131.601 47.4673C128.508 47.4673 126.961 48.5501 126.961 50.5609C126.961 53.0357 129.281 54.0411 133.148 55.2012C140.186 57.2894 147.842 60.0349 147.842 69.1223C147.842 75.3094 142.815 79.9497 133.921 79.9497C128.93 79.9791 123.967 79.1955 119.227 77.6296C119.048 77.5666 118.886 77.4645 118.752 77.3307C118.619 77.1968 118.516 77.0347 118.454 76.8562C118.454 76.8562 117.68 70.9784 117.68 70.669C117.675 70.566 117.691 70.463 117.728 70.3666C117.765 70.2702 117.821 70.1827 117.894 70.1098C117.967 70.0368 118.055 69.98 118.151 69.9431C118.247 69.9063 118.351 69.8901 118.454 69.8957C118.84 69.8957 126.961 72.2158 133.921 72.2158Z" fill="white"/>
<path d="M163.852 63.7093C164.471 68.659 166.559 72.2166 174.293 72.2166C178.712 72.0785 183.11 71.561 187.441 70.6698C187.544 70.6642 187.647 70.6804 187.743 70.7173C187.839 70.7542 187.927 70.811 188 70.8839C188.073 70.9569 188.13 71.0444 188.166 71.1408C188.203 71.2371 188.22 71.3402 188.214 71.4432C188.214 71.6752 187.441 77.6303 187.441 77.6303C187.415 77.8263 187.325 78.0083 187.185 78.1481C187.045 78.288 186.863 78.3778 186.667 78.4037C182.623 79.4346 178.466 79.9542 174.293 79.9505C157.665 79.9505 154.185 70.9018 154.185 59.8423C154.185 48.7829 157.742 39.8115 173.52 39.8115C184.502 39.8115 190.611 45.9213 190.611 59.8423V62.9359C190.592 63.1479 190.494 63.3449 190.336 63.4881C190.179 63.6312 189.974 63.7102 189.761 63.7093H163.852ZM163.852 55.9754H181.176C180.867 51.6444 178.933 47.4681 173.52 47.4681C166.172 47.4681 164.394 51.103 163.852 55.9754Z" fill="white"/>
<path d="M199.351 22.6416C199.345 22.5386 199.361 22.4355 199.398 22.3392C199.435 22.2428 199.492 22.1553 199.565 22.0823C199.638 22.0094 199.725 21.9526 199.822 21.9157C199.918 21.8788 200.021 21.8626 200.124 21.8682L207.858 21.0948C207.961 21.0892 208.064 21.1054 208.16 21.1423C208.257 21.1792 208.344 21.236 208.417 21.3089C208.49 21.3819 208.547 21.4694 208.584 21.5658C208.621 21.6621 208.637 21.7652 208.631 21.8682V72.9893C208.661 74.8192 208.921 76.6381 209.405 78.4031C209.41 78.5061 209.394 78.6091 209.357 78.7055C209.32 78.8019 209.264 78.8894 209.191 78.9623C209.118 79.0353 209.03 79.0921 208.934 79.129C208.837 79.1659 208.734 79.182 208.631 79.1765H200.897C200.588 79.1765 200.279 78.8671 200.124 78.4031C199.605 76.6456 199.344 74.8219 199.351 72.9893V22.6416Z" fill="white"/>
<path d="M220 22.6416C219.994 22.5386 220.01 22.4355 220.047 22.3392C220.084 22.2428 220.141 22.1553 220.214 22.0823C220.287 22.0094 220.374 21.9526 220.471 21.9157C220.567 21.8788 220.67 21.8626 220.773 21.8682L228.507 21.0948C228.61 21.0892 228.713 21.1054 228.809 21.1423C228.906 21.1792 228.993 21.236 229.066 21.3089C229.139 21.3819 229.196 21.4694 229.233 21.5658C229.27 21.6621 229.286 21.7652 229.28 21.8682V72.9893C229.31 74.8192 229.57 76.6381 230.054 78.4031C230.059 78.5061 230.043 78.6091 230.006 78.7055C229.969 78.8019 229.912 78.8894 229.84 78.9623C229.767 79.0353 229.679 79.0921 229.583 79.129C229.486 79.1659 229.383 79.182 229.28 79.1765H221.546C221.237 79.1765 220.928 78.8671 220.773 78.4031C220.254 76.6456 219.993 74.8219 220 72.9893V22.6416Z" fill="white"/>
<path d="M248.151 63.7093C248.77 68.659 250.858 72.2166 258.592 72.2166C263.01 72.0785 267.409 71.561 271.739 70.6698C271.842 70.6642 271.945 70.6804 272.042 70.7173C272.138 70.7542 272.226 70.811 272.299 70.8839C272.372 70.9569 272.428 71.0444 272.465 71.1408C272.502 71.2371 272.518 71.3402 272.513 71.4432C272.513 71.6752 271.739 77.6303 271.739 77.6303C271.713 77.8263 271.624 78.0083 271.484 78.1481C271.344 78.288 271.162 78.3778 270.966 78.4037C266.922 79.4346 262.765 79.9542 258.592 79.9505C241.964 79.9505 238.484 70.9018 238.484 59.8423C238.484 48.7829 242.041 39.8115 257.818 39.8115C268.8 39.8115 274.91 45.9213 274.91 59.8423V62.9359C274.891 63.1479 274.793 63.3449 274.635 63.4881C274.478 63.6312 274.272 63.7102 274.06 63.7093H248.151ZM248.151 55.9754H265.475C265.166 51.6444 263.232 47.4681 257.818 47.4681C250.471 47.4681 248.692 51.103 248.151 55.9754Z" fill="white"/>
<path d="M300.655 39.7334C312.256 39.7334 319.99 45.9205 319.99 59.8416C319.99 73.7626 312.256 79.9497 300.655 79.9497C289.054 79.9497 281.32 73.7626 281.32 59.8416C281.32 45.9205 289.054 39.7334 300.655 39.7334ZM300.655 72.2158C308.389 72.2158 310.709 67.5755 310.709 59.8416C310.709 52.1076 308.389 47.4673 300.655 47.4673C292.921 47.4673 290.601 52.1076 290.601 59.8416C290.601 67.5755 292.921 72.2158 300.655 72.2158Z" fill="white"/>
<path d="M211.938 98.1358L213.558 103.536C213.594 103.644 213.648 103.716 213.738 103.716H215.898C215.988 103.716 216.042 103.644 216.078 103.536C216.078 103.536 219.138 94.9678 219.138 94.8958C219.138 94.7878 219.066 94.7158 218.958 94.7158H217.068C216.996 94.7158 216.924 94.7878 216.888 94.8958L215.016 100.656L214.818 101.916L214.62 100.656L212.838 94.8958C212.802 94.8058 212.748 94.7158 212.658 94.7158H211.956L210.606 94.8958C210.534 94.9138 210.462 94.9858 210.426 95.0758L208.716 100.656L208.518 101.916L208.32 100.656L206.448 94.8958C206.412 94.7878 206.34 94.7158 206.268 94.7158C206.178 94.7158 204.468 94.8958 204.468 94.8958C204.36 94.9138 204.288 94.9498 204.288 95.0758C204.288 95.1478 207.258 103.536 207.258 103.536C207.294 103.644 207.348 103.716 207.438 103.716H209.598C209.688 103.716 209.742 103.644 209.778 103.536L211.398 98.1358L211.668 96.6958L211.938 98.1358ZM224.708 96.3358C225.968 96.3358 226.418 97.3078 226.49 98.3158H222.458C222.584 97.1818 222.998 96.3358 224.708 96.3358ZM228.488 100.116C228.596 100.116 228.686 100.026 228.686 99.9358V99.2158C228.686 95.9758 227.264 94.5538 224.708 94.5538C221.036 94.5538 220.208 96.6418 220.208 99.2158C220.208 101.79 221.018 103.896 224.888 103.896C226.508 103.896 227.768 103.536 227.768 103.536C227.876 103.518 227.93 103.446 227.948 103.356C227.948 103.356 228.128 101.97 228.128 101.916C228.128 101.808 228.056 101.736 227.948 101.736C227.858 101.736 226.328 102.096 224.888 102.096C223.088 102.096 222.602 101.268 222.458 100.116H228.488ZM232.712 103.536C232.73 103.41 232.838 102.942 232.838 102.942C232.838 102.942 233.882 103.896 235.232 103.896C238.85 103.896 239.372 101.79 239.372 99.2158C239.372 96.6418 238.85 94.5358 235.232 94.5358C234.134 94.5358 233.324 95.0578 232.892 95.4358V90.3958C232.892 90.2878 232.802 90.2158 232.712 90.2158C232.604 90.2158 230.912 90.3958 230.912 90.3958C230.804 90.4138 230.732 90.4678 230.732 90.5758V102.096C230.732 102.996 230.552 103.428 230.552 103.536C230.552 103.644 230.624 103.716 230.732 103.716H232.532C232.604 103.716 232.676 103.644 232.712 103.536ZM232.892 99.2158C232.892 97.5958 233.396 96.3358 235.232 96.3358C236.888 96.3358 237.212 97.5958 237.212 99.2158C237.212 100.836 236.888 102.096 235.232 102.096C233.396 102.096 232.928 100.962 232.892 99.2158ZM253.621 97.5958C253.513 98.2438 253.351 99.0178 253.063 99.7378L250.831 97.2898C252.487 96.6778 253.981 96.0118 253.981 94.1758C253.981 92.3758 252.937 90.9358 250.201 90.9358C247.465 90.9358 246.421 92.3758 246.421 94.1758C246.421 94.9138 246.781 95.6878 247.663 96.7138C246.421 97.2358 245.521 98.3158 245.521 100.116C245.521 102.222 246.601 103.896 250.201 103.896C251.389 103.896 252.109 103.554 253.045 102.834L253.117 102.78C253.531 103.23 253.801 103.536 253.801 103.536C253.873 103.626 253.999 103.716 254.089 103.716H256.321C256.429 103.716 256.501 103.644 256.501 103.536C256.501 103.518 255.601 102.51 254.431 101.232C255.187 100.08 255.601 98.6398 255.673 97.5958C255.673 97.4698 255.583 97.4158 255.493 97.4158H253.801C253.711 97.4158 253.639 97.4878 253.621 97.5958ZM248.941 98.1358C249.859 99.1438 250.993 100.404 251.929 101.466C251.479 101.862 250.903 102.096 250.201 102.096C248.041 102.096 247.681 101.178 247.681 100.116C247.681 99.1978 248.167 98.6218 248.941 98.1358ZM249.553 95.9218C249.121 95.4898 248.581 94.8958 248.581 94.1758C248.581 93.3118 248.887 92.7358 250.201 92.7358C251.533 92.7358 251.821 93.4558 251.821 94.1758C251.821 95.0758 250.723 95.4178 249.553 95.9218ZM262.848 103.536C262.848 103.644 262.92 103.716 263.028 103.716H264.828C264.936 103.716 265.008 103.644 265.008 103.536V98.4958C265.008 97.0558 265.728 96.3358 267.348 96.3358C268.248 96.3358 268.788 96.6958 268.788 98.4958V103.536C268.788 103.644 268.86 103.716 268.968 103.716H270.768C270.876 103.716 270.948 103.644 270.948 103.536V98.4958C270.948 97.0558 271.704 96.3358 273.288 96.3358C274.188 96.3358 274.728 96.6958 274.728 98.4958V103.536C274.728 103.644 274.8 103.716 274.908 103.716H276.708C276.816 103.716 276.888 103.644 276.888 103.536V98.4958C276.888 95.7958 276.168 94.5358 273.288 94.5358C271.668 94.5358 270.804 95.5798 270.516 95.9758C270.048 95.0038 269.094 94.5358 267.348 94.5358C265.728 94.5358 264.936 95.5618 264.936 95.5618L264.828 94.8958C264.81 94.7878 264.72 94.7158 264.648 94.7158H262.848C262.74 94.7158 262.668 94.7878 262.668 94.8958C262.668 94.9678 262.848 95.4358 262.848 96.1558V103.536ZM281.026 99.2158C281.026 97.4158 281.566 96.3358 283.366 96.3358C285.166 96.3358 285.706 97.4158 285.706 99.2158C285.706 101.016 285.166 102.096 283.366 102.096C281.566 102.096 281.026 101.016 281.026 99.2158ZM278.866 99.2158C278.866 102.456 280.666 103.896 283.366 103.896C286.066 103.896 287.866 102.456 287.866 99.2158C287.866 95.9758 286.066 94.5358 283.366 94.5358C280.666 94.5358 278.866 95.9758 278.866 99.2158ZM291.951 103.536C291.969 103.41 292.077 102.942 292.077 102.942C292.077 102.942 293.121 103.896 294.471 103.896C298.089 103.896 298.611 101.79 298.611 99.2158C298.611 96.6418 298.089 94.5358 294.471 94.5358C293.373 94.5358 292.563 95.0578 292.131 95.4358V90.3958C292.131 90.2878 292.041 90.2158 291.951 90.2158C291.843 90.2158 290.151 90.3958 290.151 90.3958C290.043 90.4138 289.971 90.4678 289.971 90.5758V102.096C289.971 102.996 289.791 103.428 289.791 103.536C289.791 103.644 289.863 103.716 289.971 103.716H291.771C291.843 103.716 291.915 103.644 291.951 103.536ZM292.131 99.2158C292.131 97.5958 292.635 96.3358 294.471 96.3358C296.127 96.3358 296.451 97.5958 296.451 99.2158C296.451 100.836 296.127 102.096 294.471 102.096C292.635 102.096 292.167 100.962 292.131 99.2158ZM300.745 102.276C300.745 102.996 300.925 103.536 300.925 103.536C300.961 103.644 301.033 103.716 301.105 103.716H302.905C303.013 103.716 303.085 103.644 303.085 103.536C303.085 103.464 302.905 102.996 302.905 102.276V94.8958C302.905 94.7878 302.833 94.7158 302.725 94.7158L300.925 94.8958C300.817 94.8958 300.745 94.9678 300.745 95.0758V102.276ZM300.565 92.1958C300.565 92.8978 301.123 93.4558 301.825 93.4558C302.527 93.4558 303.085 92.8978 303.085 92.1958C303.085 91.4938 302.527 90.9358 301.825 90.9358C301.123 90.9358 300.565 91.4938 300.565 92.1958ZM305.544 102.276C305.544 102.996 305.724 103.536 305.724 103.536C305.76 103.644 305.832 103.716 305.904 103.716H307.704C307.812 103.716 307.884 103.644 307.884 103.536C307.884 103.464 307.704 102.996 307.704 102.276V90.3778C307.704 90.2698 307.632 90.1978 307.524 90.1978L305.724 90.3778C305.616 90.3778 305.544 90.4498 305.544 90.5578V102.276ZM314.339 96.3358C315.599 96.3358 316.049 97.3078 316.121 98.3158H312.089C312.215 97.1818 312.629 96.3358 314.339 96.3358ZM318.119 100.116C318.227 100.116 318.317 100.026 318.317 99.9358V99.2158C318.317 95.9758 316.895 94.5538 314.339 94.5538C310.667 94.5538 309.839 96.6418 309.839 99.2158C309.839 101.79 310.649 103.896 314.519 103.896C316.139 103.896 317.399 103.536 317.399 103.536C317.507 103.518 317.561 103.446 317.579 103.356C317.579 103.356 317.759 101.97 317.759 101.916C317.759 101.808 317.687 101.736 317.579 101.736C317.489 101.736 315.959 102.096 314.519 102.096C312.719 102.096 312.233 101.268 312.089 100.116H318.119Z" fill="white"/>
</g>
<defs>
<clipPath id="clip0_959_3607">
<rect width="320" height="108.091" fill="white"/>
</clipPath>
</defs>
</svg>
