<svg width="203" height="197" viewBox="0 0 203 197" fill="none" xmlns="http://www.w3.org/2000/svg">
<path d="M16.3316 188.254C19.7345 188.254 20.972 187.11 20.972 184.987C20.972 182.374 18.6518 181.312 14.7848 180.087C7.74699 177.882 0.0904314 174.861 0.0904314 165.388C0.0904314 158.447 4.34408 153.955 14.0115 153.955C18.1847 153.951 22.3418 154.5 26.3857 155.588C26.5642 155.655 26.7264 155.763 26.8602 155.904C26.994 156.045 27.0962 156.216 27.1591 156.405C27.1591 156.405 27.9325 162.611 27.9325 162.938C27.9381 163.047 27.9219 163.156 27.885 163.257C27.8481 163.359 27.7913 163.452 27.7184 163.529C27.6454 163.606 27.5579 163.666 27.4615 163.705C27.3652 163.743 27.2621 163.761 27.1591 163.755C22.8341 162.78 18.4325 162.233 14.0115 162.121C10.9179 162.121 9.37111 163.265 9.37111 165.388C9.37111 168.001 11.6913 169.063 15.5582 170.288C22.5961 172.493 30.2526 175.392 30.2526 184.987C30.2526 191.52 25.2256 196.42 16.3316 196.42C11.34 196.451 6.37693 195.623 1.63721 193.97C1.4587 193.904 1.29656 193.796 1.16272 193.654C1.02888 193.513 0.926741 193.342 0.863817 193.153C0.863817 193.153 0.0904314 186.947 0.0904314 186.62C0.0848497 186.512 0.101031 186.403 0.137923 186.301C0.174815 186.199 0.231586 186.107 0.304546 186.03C0.377506 185.953 0.465019 185.893 0.56138 185.854C0.65774 185.815 0.760787 185.798 0.863817 185.804C1.25051 185.804 9.37111 188.254 16.3316 188.254Z" fill="white"/>
<path d="M46.2624 179.271C46.8812 184.497 48.9693 188.253 56.7032 188.253C61.122 188.108 65.5207 187.561 69.8509 186.62C69.9539 186.614 70.0569 186.631 70.1533 186.67C70.2497 186.709 70.3372 186.769 70.4101 186.846C70.4831 186.923 70.5399 187.016 70.5768 187.117C70.6136 187.219 70.6298 187.328 70.6243 187.437C70.6243 187.682 69.8509 193.97 69.8509 193.97C69.8249 194.177 69.7351 194.369 69.5953 194.517C69.4555 194.664 69.2735 194.759 69.0775 194.786C65.0336 195.875 60.8764 196.424 56.7032 196.42C40.0753 196.42 36.5951 186.865 36.5951 175.187C36.5951 163.51 40.1527 154.037 55.9298 154.037C66.912 154.037 73.0218 160.488 73.0218 175.187V178.454C73.0024 178.678 72.9043 178.886 72.7468 179.037C72.5893 179.188 72.3839 179.271 72.171 179.271H46.2624ZM46.2624 171.104H63.5864C63.277 166.531 61.3436 162.121 55.9298 162.121C48.5826 162.121 46.8038 165.959 46.2624 171.104Z" fill="white"/>
<path d="M81.7613 135.907C81.7557 135.799 81.7719 135.69 81.8088 135.588C81.8457 135.486 81.9025 135.394 81.9754 135.317C82.0484 135.24 82.1359 135.18 82.2323 135.141C82.3286 135.102 82.4317 135.085 82.5347 135.091L90.2686 134.274C90.3716 134.268 90.4747 134.285 90.5711 134.324C90.6674 134.363 90.7549 134.423 90.8279 134.5C90.9009 134.577 90.9576 134.67 90.9945 134.771C91.0314 134.873 91.0476 134.982 91.042 135.091V189.07C91.0715 191.002 91.3314 192.923 91.8154 194.786C91.821 194.895 91.8048 195.004 91.7679 195.106C91.731 195.207 91.6743 195.3 91.6013 195.377C91.5283 195.454 91.4408 195.514 91.3445 195.553C91.2481 195.592 91.145 195.609 91.042 195.603H83.3081C82.9987 195.603 82.6894 195.276 82.5347 194.786C82.0155 192.931 81.755 191.005 81.7613 189.07V135.907Z" fill="white"/>
<path d="M102.41 135.907C102.404 135.799 102.42 135.69 102.457 135.588C102.494 135.486 102.551 135.394 102.624 135.317C102.697 135.24 102.784 135.18 102.881 135.141C102.977 135.102 103.08 135.085 103.183 135.091L110.917 134.274C111.02 134.268 111.123 134.285 111.22 134.324C111.316 134.363 111.403 134.423 111.476 134.5C111.549 134.577 111.606 134.67 111.643 134.771C111.68 134.873 111.696 134.982 111.691 135.091V189.07C111.72 191.002 111.98 192.923 112.464 194.786C112.47 194.895 112.453 195.004 112.416 195.106C112.38 195.207 112.323 195.3 112.25 195.377C112.177 195.454 112.089 195.514 111.993 195.553C111.897 195.592 111.794 195.609 111.691 195.603H103.957C103.647 195.603 103.338 195.276 103.183 194.786C102.664 192.931 102.404 191.005 102.41 189.07V135.907Z" fill="white"/>
<path d="M130.561 179.271C131.18 184.497 133.268 188.253 141.002 188.253C145.421 188.108 149.819 187.561 154.15 186.62C154.253 186.614 154.356 186.631 154.452 186.67C154.548 186.709 154.636 186.769 154.709 186.846C154.782 186.923 154.839 187.016 154.876 187.117C154.912 187.219 154.929 187.328 154.923 187.437C154.923 187.682 154.15 193.97 154.15 193.97C154.124 194.177 154.034 194.369 153.894 194.517C153.754 194.664 153.572 194.759 153.376 194.786C149.332 195.875 145.175 196.424 141.002 196.42C124.374 196.42 120.894 186.865 120.894 175.187C120.894 163.51 124.451 154.037 140.229 154.037C151.211 154.037 157.321 160.488 157.321 175.187V178.454C157.301 178.678 157.203 178.886 157.046 179.037C156.888 179.188 156.683 179.271 156.47 179.271H130.561ZM130.561 171.104H147.885C147.576 166.531 145.642 162.121 140.229 162.121C132.881 162.121 131.103 165.959 130.561 171.104Z" fill="white"/>
<path d="M183.066 153.955C194.667 153.955 202.4 160.488 202.4 175.187C202.4 189.887 194.667 196.42 183.066 196.42C171.465 196.42 163.731 189.887 163.731 175.187C163.731 160.488 171.465 153.955 183.066 153.955ZM183.066 188.254C190.8 188.254 193.12 183.354 193.12 175.187C193.12 167.021 190.8 162.121 183.066 162.121C175.332 162.121 173.012 167.021 173.012 175.187C173.012 183.354 175.332 188.254 183.066 188.254Z" fill="white"/>
<path d="M112.702 76.169C112.764 75.9034 112.825 75.6377 112.866 75.3618C112.927 74.9726 112.968 74.5804 112.988 74.1868C113.037 73.0305 112.934 71.8728 112.682 70.7434C112.682 70.6413 112.682 70.5289 112.611 70.4267C111.82 67.4274 109.962 64.8212 107.386 63.0991C104.81 61.3771 101.694 60.6581 98.6257 61.0775H98.4829C95.6916 61.2802 92.8866 61.1739 90.1185 60.7608C81.9581 59.6164 76.5723 54.2828 74.8178 47.7741C72.2677 38.3637 77.1741 29.3824 88.2416 24.7538C94.5965 22.0972 98.9317 16.2118 97.2384 9.50903C96.8369 7.90598 96.1236 6.398 95.1394 5.07145C94.1553 3.7449 92.9196 2.62581 91.5031 1.77827C90.0866 0.930735 88.5171 0.371385 86.8845 0.132249C85.2519 -0.106886 83.5882 -0.0211111 81.9887 0.384664C75.695 1.97862 72.1759 8.0479 72.6655 14.4033C73.5631 26.2353 70.401 33.1731 57.0791 39.3344C56.7305 39.4868 56.39 39.6573 56.0591 39.8452C54.8205 40.557 53.7158 41.4802 52.7949 42.5734C52.5739 42.8316 52.3662 43.101 52.1727 43.3806C51.785 43.9516 51.4439 44.553 51.1527 45.1789C51.0098 45.4752 50.8874 45.7817 50.765 46.0984C50.761 46.1324 50.761 46.1667 50.765 46.2006C50.6528 46.5072 50.5508 46.8035 50.459 47.1202V47.2428C50.3672 47.5596 50.2856 47.8763 50.2244 48.1931C50.2244 48.1931 50.2244 48.1931 50.2244 48.2748C50.1632 48.5882 50.1122 48.9287 50.0714 49.2966C50.0714 49.6235 50.0102 49.9505 50 50.3183V50.4614C50 50.7781 50 51.1051 50 51.4321C50 51.4832 50 51.5445 50 51.5956C50 51.9225 50.0612 52.2495 50.1122 52.6173C50.1073 52.6615 50.1073 52.706 50.1122 52.7501C50.1644 53.0945 50.2359 53.4356 50.3264 53.7719C50.408 54.1091 50.51 54.4463 50.6222 54.7937C50.6222 54.7937 50.6222 54.8754 50.6222 54.9265C50.7242 55.233 50.8466 55.5396 50.9792 55.8359C51.0092 55.8875 51.0331 55.9423 51.0507 55.9994C51.1935 56.2855 51.3363 56.5715 51.4893 56.8474C51.4893 56.8985 51.5403 56.9394 51.5607 56.9803C51.7341 57.2663 51.8973 57.5422 52.0911 57.8181C52.2849 58.094 52.4787 58.3596 52.6929 58.6253C52.8969 58.8807 53.1213 59.126 53.3458 59.361L53.4376 59.4427C53.6596 59.6771 53.8945 59.8989 54.1414 60.1069C54.1636 60.1359 54.1913 60.1602 54.223 60.1784C54.478 60.4032 54.733 60.6075 54.9982 60.8017C55.5601 61.2119 56.1575 61.571 56.7833 61.8745C57.0893 62.0278 57.3954 62.1708 57.7116 62.2934H57.7626C59.0947 62.8127 60.5058 63.0995 61.9346 63.1415C62.3018 63.1415 62.6588 63.1415 63.026 63.1415C73.5937 62.7021 80.8667 65.2668 85.2835 71.1113C86.5014 72.8296 87.5211 74.6806 88.3232 76.6288L88.3844 76.7514C90.5163 82.2383 95.2902 86.0903 100.798 85.9984C101.724 85.9835 102.644 85.8635 103.542 85.6408C105.734 85.0865 107.735 83.9485 109.333 82.3476C110.931 80.7466 112.067 78.7423 112.621 76.5471C112.662 76.4347 112.672 76.3018 112.702 76.169Z" fill="white"/>
<path d="M90.3017 37.6864C90.2405 37.9628 90.1792 38.2289 90.1384 38.4951C90.0769 38.8884 90.0361 39.2848 90.016 39.6824C89.958 40.8404 90.0576 42.0009 90.3119 43.1319C90.3119 43.2343 90.3119 43.3469 90.3833 43.4492C91.1759 46.4527 93.0348 49.0622 95.6105 50.787C98.1861 52.5117 101.301 53.233 104.37 52.815H104.523C107.314 52.609 110.119 52.7119 112.888 53.1221C121.049 54.2787 126.435 59.6218 128.19 66.1421C130.74 75.5693 125.833 84.5666 114.765 89.2034C108.42 91.8852 104.084 97.822 105.777 104.496C106.181 106.099 106.896 107.606 107.88 108.932C108.865 110.258 110.1 111.376 111.515 112.223C112.931 113.07 114.498 113.629 116.129 113.868C117.759 114.107 119.421 114.021 121.018 113.616C127.313 112.009 130.832 105.939 130.353 99.5723C129.445 87.7192 132.607 80.7691 145.941 74.5969C146.277 74.4331 146.604 74.2693 146.961 74.0851C148.197 73.369 149.302 72.4445 150.225 71.3521C150.439 71.0962 150.654 70.8198 150.847 70.5435C151.234 69.9672 151.575 69.3614 151.868 68.7317C152.01 68.4247 152.143 68.1176 152.255 67.8105C152.259 67.7765 152.259 67.7421 152.255 67.7081C152.368 67.4011 152.47 67.1042 152.561 66.7869C152.561 66.7869 152.561 66.705 152.561 66.6641C152.643 66.3468 152.725 66.0295 152.786 65.7122C152.791 65.6851 152.791 65.6573 152.786 65.6303C152.857 65.3027 152.898 64.9752 152.939 64.6067C152.939 64.2791 152.939 63.9414 153 63.5831V63.4296C153 63.1123 153 62.7949 153 62.4674C153 62.4674 153 62.3548 153 62.2934C153 61.9658 152.949 61.6485 152.898 61.321V61.1777C152.898 60.8399 152.776 60.4919 152.694 60.1541C152.612 59.8163 152.5 59.4785 152.388 59.1305V58.9974C152.276 58.6904 152.153 58.3833 152.021 58.0865C151.991 58.0348 151.967 57.9798 151.949 57.9227C151.817 57.6361 151.664 57.3495 151.511 57.0629V56.8786C151.349 56.5892 151.172 56.309 150.98 56.0393C150.786 55.7629 150.592 55.507 150.378 55.2409V55.1795C150.164 54.9338 149.95 54.6882 149.715 54.4527L149.634 54.3606C149.399 54.1354 149.164 53.9102 148.93 53.7055L148.838 53.6236C148.583 53.4087 148.328 53.204 148.062 53.0095C147.496 52.6206 146.899 52.2782 146.277 51.9859C145.971 51.8426 145.655 51.6993 145.339 51.5765C144.006 51.0596 142.595 50.7757 141.166 50.7371C140.809 50.7371 140.442 50.7371 140.075 50.7371C129.516 51.1875 122.232 48.6183 117.815 42.7634C116.64 41.0727 115.654 39.2567 114.877 37.3487L114.816 37.2156C112.684 31.7292 107.92 27.8703 102.401 28.0033C101.475 28.0135 100.554 28.1338 99.6564 28.3616C97.4657 28.9189 95.4656 30.0595 93.8675 31.663C92.2693 33.2665 91.1325 35.2733 90.5771 37.4715C90.3527 37.4305 90.3323 37.5636 90.3017 37.6864Z" fill="white"/>
</svg>
